<svg width="64" height="64" viewBox="0 0 64 64" fill="none" xmlns="http://www.w3.org/2000/svg">
<g clip-path="url(#clip0_1_31)">
<rect width="64" height="64" fill="white"/>
<path d="M48.144 21.024C47.44 19.984 46.64 19.008 45.744 18.112C45.36 17.728 44.96 17.36 44.544 17.008L53.28 8.272H27.84L18.016 18.096L18 18.112C17.12 19.008 16.304 19.984 15.6 21.024C14.896 22.08 14.288 23.2 13.792 24.352C12.768 26.768 12.256 29.344 12.256 31.984C12.256 34.64 12.768 37.2 13.792 39.616C14.288 40.784 14.896 41.904 15.6 42.944C16.304 43.984 17.104 44.96 18 45.856C18.384 46.24 18.784 46.608 19.2 46.96L10.464 55.696H35.904L45.76 45.84C46.64 44.96 47.44 43.984 48.144 42.96C48.848 41.904 49.456 40.784 49.952 39.632C50.976 37.216 51.488 34.64 51.488 32C51.488 29.344 50.976 26.784 49.952 24.368C49.456 23.2 48.848 22.064 48.144 21.024Z" fill="black"/>
<path d="M44.608 19.248C44.224 18.864 43.824 18.496 43.424 18.16L32.752 28.832C33.28 28.976 33.776 29.264 34.192 29.68C35.488 30.976 35.488 33.056 34.192 34.352L14.384 54.128H16.704L35.328 35.504C37.248 33.584 37.264 30.464 35.344 28.528L36.496 27.376C39.056 29.952 39.04 34.096 36.48 36.656L19.024 54.128H21.344L37.648 37.824C40.848 34.624 40.864 29.424 37.664 26.224L38.816 25.072C42.656 28.928 42.64 35.152 38.8 38.992L23.648 54.144H25.968L39.952 40.16C44.432 35.68 44.448 28.416 39.968 23.92L41.12 22.768C46.224 27.904 46.224 36.208 41.104 41.328L28.272 54.16H30.592L42.256 42.496C48.016 36.736 48.032 27.392 42.272 21.616L43.44 20.448C49.84 26.864 49.824 37.248 43.424 43.648L32.928 54.144H35.248L44.592 44.8C51.648 37.728 51.648 26.304 44.608 19.248Z" fill="white"/>
<path d="M19.152 44.752C19.536 45.136 19.936 45.504 20.336 45.84L31.008 35.168C30.48 35.024 29.984 34.736 29.568 34.32C28.272 33.024 28.272 30.944 29.568 29.648L49.392 9.856H47.072L28.432 28.496C26.512 30.416 26.496 33.536 28.416 35.472L27.264 36.624C24.72 34.048 24.72 29.904 27.28 27.344L44.768 9.856H42.448L26.112 26.176C22.912 29.376 22.896 34.576 26.096 37.776L24.944 38.928C21.104 35.072 21.12 28.848 24.96 25.008L40.128 9.84H37.808L23.792 23.856C19.312 28.336 19.296 35.6 23.776 40.096L22.624 41.248C17.52 36.112 17.52 27.808 22.64 22.688L35.488 9.84H33.168L21.472 21.536C15.712 27.296 15.696 36.64 21.456 42.416L20.288 43.584C13.888 37.168 13.904 26.784 20.304 20.384L30.832 9.856H28.512L19.136 19.232C12.112 26.272 12.112 37.712 19.152 44.752Z" fill="#CF0A2C"/>
</g>
<defs>
<clipPath id="clip0_1_31">
<rect width="64" height="64" fill="white"/>
</clipPath>
</defs>
</svg>
