<svg width="64" height="64" viewBox="0 0 64 64" fill="none" xmlns="http://www.w3.org/2000/svg">
<g clip-path="url(#clip0_1_30)">
<rect width="64" height="64" fill="white"/>
<path d="M22.24 51.696C22 51.488 21.888 51.168 21.984 50.848L24.848 40.512C24.864 40.464 24.896 40.384 24.912 40.336L23.584 38.224C23.456 38.032 23.424 37.792 23.504 37.568L23.696 36.944L21.872 36.816C20.144 36.688 19.552 36.464 19.136 36.24C17.408 35.296 16.944 32.576 16.848 31.76L16.72 30.848C16.672 30.464 16.768 30.112 16.976 29.856C17.152 29.648 17.392 29.536 17.648 29.488C13.664 25.92 10.064 21.472 11.296 15.168C12.656 8.208 18.272 6.096 18.496 6C18.576 5.968 18.672 5.952 18.768 5.952C19.056 5.952 19.344 6.112 19.472 6.368C19.568 6.56 19.6 6.784 19.536 6.96C21.392 5.376 23.152 4.688 23.904 4.448C23.984 4.416 24.064 4.4 24.144 4.4C24.448 4.4 24.736 4.576 24.88 4.864C25.056 5.248 24.912 5.68 24.576 5.872C22.896 6.912 21.424 8.32 20.32 9.92C21.664 9.616 22.576 9.552 22.896 9.552C23.024 9.552 23.056 9.552 23.056 9.552C23.456 9.584 23.776 9.872 23.808 10.272C23.856 10.672 23.584 11.024 23.2 11.136C23.184 11.136 20.976 11.712 18.544 13.456C18.08 14.848 17.872 16.32 17.872 17.808C17.888 20.624 18.8 23.52 20.368 25.744C20.752 26.272 21.12 26.736 21.504 27.152C21.344 24.256 22.16 19.728 27.392 17.616C27.488 17.568 27.6 17.568 27.696 17.568C27.984 17.568 28.288 17.728 28.416 18C28.608 18.384 28.464 18.832 28.112 19.04L28.064 19.072C27.248 19.584 26.56 20.288 26.064 21.072C26.64 20.896 27.12 20.848 27.456 20.8L27.504 20.784C27.536 20.784 27.552 20.784 27.6 20.784C27.92 20.784 28.24 20.992 28.352 21.312C28.496 21.664 28.336 22.064 28.048 22.256L28.016 22.272C28 22.272 27.984 22.288 27.984 22.288C26.32 23.248 25.392 24.384 25.232 25.648C25.056 27.024 25.824 28.32 26.368 29.04C27.76 27.408 28.672 24.64 28.928 23.568C29.008 23.2 29.344 22.96 29.696 22.96C29.728 22.96 29.744 22.96 29.792 22.96C30.208 23.008 30.496 23.36 30.496 23.76C30.528 27.168 29.616 29.504 28.672 31.024C30.08 31.728 31.456 31.776 31.776 31.776C31.808 31.776 31.856 31.776 31.856 31.776C31.872 31.776 31.904 31.776 31.952 31.776C32.256 31.776 33.616 31.728 35.056 31.008C34.112 29.504 33.2 27.184 33.2 23.76C33.2 23.344 33.504 23.008 33.904 22.96C33.936 22.96 33.952 22.96 34 22.96C34.368 22.96 34.688 23.2 34.768 23.568C35.024 24.624 35.952 27.408 37.36 29.024C37.888 28.304 38.656 26.992 38.48 25.632C38.304 24.368 37.376 23.248 35.712 22.288C35.696 22.288 35.664 22.256 35.664 22.256C35.36 22.048 35.2 21.664 35.344 21.312C35.472 21.008 35.76 20.784 36.096 20.784C36.128 20.784 36.144 20.784 36.192 20.784H36.24C36.56 20.832 37.072 20.88 37.632 21.056C37.12 20.288 36.432 19.6 35.616 19.072L35.568 19.04C35.2 18.816 35.072 18.368 35.264 18C35.408 17.728 35.68 17.552 35.984 17.552C36.08 17.552 36.192 17.568 36.288 17.6C41.52 19.68 42.384 24.208 42.224 27.104C42.624 26.688 42.976 26.224 43.36 25.696C44.928 23.472 45.824 20.56 45.824 17.744C45.824 16.24 45.584 14.8 45.12 13.392C42.656 11.632 40.464 11.104 40.448 11.088C40.048 11.008 39.808 10.64 39.84 10.224C39.872 9.824 40.192 9.52 40.592 9.488C40.592 9.488 40.64 9.488 40.752 9.488C41.056 9.488 41.968 9.52 43.328 9.84C42.208 8.24 40.752 6.848 39.04 5.824C38.688 5.616 38.544 5.168 38.736 4.816C38.88 4.528 39.152 4.336 39.456 4.336C39.536 4.336 39.616 4.352 39.696 4.384C40.432 4.608 42.208 5.296 44.08 6.864C44.032 6.672 44.048 6.448 44.128 6.272C44.272 6 44.544 5.856 44.832 5.856C44.912 5.856 45.024 5.872 45.104 5.904C45.328 5.984 50.96 8.064 52.368 14.992C53.648 21.28 50.064 25.76 46.096 29.36C46.352 29.392 46.592 29.52 46.768 29.728C46.992 29.984 47.072 30.352 47.04 30.72L46.944 31.632C46.848 32.448 46.416 35.184 44.688 36.128C44.272 36.352 43.68 36.576 41.952 36.72L40.112 36.864L40.304 37.488C40.368 37.712 40.336 37.952 40.224 38.144L38.896 40.272C38.928 40.32 38.944 40.4 38.96 40.448L41.904 50.768C41.984 51.072 41.888 51.408 41.648 51.616L31.936 59.52L22.24 51.696Z" fill="#EDE0C5"/>
<path d="M12.096 15.312C13.392 8.73599 18.8 6.76799 18.8 6.76799C16.816 8.25599 14.8 10.992 13.984 14.864C14.8 13.856 15.552 13.104 16.432 12.48C18.624 7.74399 22.352 5.83999 24.176 5.23199C21.792 6.67199 19.808 8.83199 18.608 11.312C21.36 10.32 23.008 10.4 23.008 10.4C23.008 10.4 20.544 11.008 17.856 12.992C17.344 14.512 17.04 16.144 17.056 17.84C17.072 20.832 18.032 23.904 19.712 26.24C20.656 27.552 21.552 28.464 22.672 29.312C22.288 28.368 20.864 21.168 27.68 18.416L27.632 18.448C26.032 19.504 24.848 21.12 24.368 23.04C25.6 21.84 26.928 21.712 27.616 21.632C27.6 21.632 27.584 21.648 27.584 21.648C21.264 25.312 26.304 30.256 26.304 30.256C28.304 28.592 29.456 24.816 29.696 23.792C29.744 27.76 28.416 30.128 27.52 31.296C29.568 32.688 31.856 32.608 31.856 32.608C31.856 32.608 34.144 32.688 36.176 31.296C35.28 30.144 33.952 27.76 33.952 23.808C34.208 24.848 35.376 28.576 37.376 30.24C37.376 30.24 42.384 25.28 36.048 21.632C36.032 21.632 36.016 21.616 36.016 21.616C36.704 21.696 38.032 21.824 39.264 23.008C38.768 21.104 37.6 19.472 35.952 18.448L35.904 18.416C42.736 21.136 41.344 28.352 40.976 29.296C42.112 28.448 43.008 27.536 43.92 26.208C45.568 23.856 46.512 20.784 46.512 17.792C46.512 16.08 46.208 14.464 45.664 12.96C43.04 11.008 40.56 10.4 40.56 10.4C40.56 10.4 42.224 10.304 44.992 11.28C43.776 8.81599 41.792 6.68799 39.392 5.24799C41.232 5.83999 44.976 7.728 47.184 12.448C48.064 13.056 48.832 13.808 49.648 14.8C48.816 10.912 46.8 8.15999 44.8 6.71999C44.8 6.71999 50.208 8.65599 51.552 15.232C53.104 22.88 46.992 27.68 42.08 31.808L45.84 30.256C46.096 30.128 46.272 30.4 46.24 30.688L46.144 31.616C46.096 32.112 45.728 34.736 44.288 35.504C43.984 35.68 43.44 35.872 41.888 36L39.072 36.192L39.552 37.776L36.784 42.24L38.192 40.736L41.136 51.056L33.2 57.632L35.648 46.352L31.936 50.88L28.224 46.32L30.736 57.584L22.752 51.056L25.616 40.72L27.04 42.224L24.272 37.776L24.736 36.192L21.888 36.016C20.32 35.888 19.792 35.712 19.488 35.536C18.064 34.768 17.68 32.16 17.632 31.648L17.504 30.72C17.456 30.432 17.648 30.192 17.904 30.288L21.68 31.808C16.736 27.76 10.592 22.96 12.096 15.312ZM47.824 23.44C47.824 23.44 50.944 18.496 48.784 15.744C48.56 15.472 48.32 15.216 48.096 14.944C48.992 18.096 47.824 23.44 47.824 23.44ZM15.92 23.536C15.92 23.536 14.736 18.208 15.6 15.072C15.376 15.312 15.136 15.568 14.928 15.872C12.8 18.608 15.92 23.536 15.92 23.536Z" fill="#00471A"/>
<path d="M40.048 34.864C41.44 34.736 43.04 34.784 43.696 34.416C44.656 33.888 44.912 31.568 44.912 31.568C43.856 32.608 41.584 34.256 40.048 34.864ZM33.552 45.424H31.936H30.32L31.088 46.48H31.936H32.784L33.552 45.424ZM34.432 36.4C34.832 36.784 35.536 37.136 36.384 36.48C36.832 36.128 36.832 35.616 36.8 35.296C36.768 35.136 36.592 35.04 36.448 35.104C35.696 35.456 34.928 35.808 34.512 35.984C34.352 36.064 34.304 36.256 34.432 36.4ZM29.008 40.976L28.56 42.992L29.696 44.496H30.88L29.776 42.88L29.952 41.888C30.448 42.416 31.168 42.752 31.952 42.752C32.736 42.752 33.456 42.4 33.952 41.872L34.128 42.864L33.024 44.48H34.208L35.328 42.96L34.864 40.944C33.792 40.272 33.552 39.296 33.552 39.296L32.8 36.848L31.936 37.264L31.072 36.848L30.336 39.296C30.32 39.328 30.08 40.304 29.008 40.976ZM27.456 36.496C28.32 37.152 29.024 36.784 29.408 36.416C29.552 36.272 29.488 36.096 29.344 36C28.928 35.808 28.176 35.472 27.408 35.12C27.248 35.056 27.088 35.152 27.056 35.312C26.992 35.648 27.008 36.16 27.456 36.496ZM18.864 31.648C18.864 31.648 19.136 33.952 20.128 34.496C20.784 34.864 22.384 34.8 23.792 34.912C22.224 34.32 19.952 32.672 18.864 31.648Z" fill="white"/>
</g>
<defs>
<clipPath id="clip0_1_30">
<rect width="64" height="64" fill="white"/>
</clipPath>
</defs>
</svg>
