<svg width="64" height="64" viewBox="0 0 64 64" fill="none" xmlns="http://www.w3.org/2000/svg">
<g clip-path="url(#clip0_1_3)">
<rect width="64" height="64" fill="white"/>
<path d="M56.496 18.832C56.304 15.392 54.752 12.304 53.84 10.464L53.728 10.24L53.328 9.44L53.408 10.336C53.52 11.568 53.792 15.792 52.528 18.192C50.96 21.424 46.384 21.12 44.88 21.008L44.768 20.992C42.288 20.832 34.24 20.528 31.776 20.544C28.512 20.56 24.912 20.816 22.016 21.04C20.608 21.152 19.376 21.232 18.56 21.264C18.496 21.264 18.4 21.28 18.256 21.296C14.208 21.664 11.632 20.48 10.64 17.744C10.032 16.064 10.048 12.752 10.048 11.152V10.688V10.016L9.728 10.608C8.96 12.016 7.552 14.64 7.072 18.992C6.816 24.128 9.472 25.952 11.504 26.896C13.616 27.872 15.776 28.016 16.496 28.064H16.544H16.528C16.688 28.096 16.848 28.096 17.008 28.112C17.232 28.128 17.472 28.144 17.696 28.176C17.312 28.24 16.816 28.336 16.368 28.416C15.904 28.496 15.456 28.576 15.216 28.624C14.736 28.72 12.704 29.2 11.584 29.584C10.64 29.904 9.648 30.368 9.632 30.384L9.456 30.464L9.584 30.624C9.6 30.64 9.936 31.104 10.288 31.456C11.008 32.16 13.008 33.424 15.424 33.136C17.344 32.896 18.384 32.448 18.784 32.24C18.912 32.656 19.216 33.616 19.504 34.368C20.384 36.528 22.352 40.656 23.104 42.08C23.712 43.248 24.304 44.272 24.688 44.944L24.832 45.2C24.704 45.648 24.384 45.92 24.16 46.128C24.096 46.176 24.048 46.224 24 46.288L23.952 46.336V46.4C23.936 46.8 23.84 50.384 26.272 53.008L26.304 53.04L26.352 53.056C27.568 53.52 29.152 54 31.696 54C34.304 54 36.48 53.376 37.264 52.992L37.296 52.976L37.328 52.944C39.024 50.944 39.808 47.904 39.824 46.816V46.72L39.776 46.672C39.728 46.624 39.696 46.592 39.632 46.544C39.376 46.288 39.04 45.984 38.864 45.232C39.072 44.88 39.472 44.032 39.808 43.328C39.984 42.944 40.16 42.608 40.24 42.448C40.96 41.056 43.056 36.544 43.888 34.416C44.416 33.072 44.704 32.4 44.848 32.112C45.216 32.304 46.208 32.752 48.08 32.944C50.512 33.2 52.832 31.552 53.472 30.672C53.584 30.512 53.76 30.32 53.76 30.32L53.92 30.16L53.712 30.064C53.696 30.064 53.616 30.016 53.248 29.904L51.904 29.44L50.56 28.976C50.208 28.848 48.56 28.496 47.344 28.224L46.432 28.032L46.72 27.984C49.536 27.456 56.912 26.16 56.496 18.832Z" fill="black"/>
<path d="M7.72801 17.36C8.12801 15.264 8.80001 13.312 9.72801 11.424L9.74401 11.392H9.76001H9.77601H9.82401V11.44C9.79201 12 9.77601 12.576 9.77601 13.168C9.77601 14.56 9.87201 15.968 10.176 17.232L10.208 17.36L10.112 17.28C9.71201 16.928 9.31201 16.512 8.89601 16.144C8.52801 16.56 8.17601 17.008 7.80801 17.408L7.71201 17.504L7.72801 17.36Z" fill="#CD1F43"/>
<path d="M55.776 16.496C55.232 14.72 54.768 12.944 53.872 11.312L53.808 11.328C53.84 11.888 53.856 12.448 53.856 13.008C53.856 14.368 53.744 15.696 53.52 16.992L53.504 17.056L53.568 17.024C54 16.816 54.416 16.544 54.848 16.352L55.92 17.12L55.776 16.496Z" fill="#CD1F43"/>
<path d="M38.464 35.44L38.384 35.488C37.776 35.744 37.168 36.016 36.512 36.16C36.08 36.272 35.648 36.32 35.232 36.32C33.904 36.32 32.64 35.76 31.856 34.576L31.824 34.528L31.792 34.56C31.632 34.704 31.536 34.864 31.376 35.024C30.544 35.984 29.328 36.352 28.096 36.352C27.136 36.352 26.16 36.128 25.344 35.792L25.264 35.744L25.296 35.824C25.92 37.488 26.304 39.328 26.304 41.168C26.304 42 26.224 42.832 26.048 43.648C25.936 44.208 25.744 44.816 25.584 45.376L25.552 45.456L25.632 45.408C27.392 44.464 29.552 44 31.712 44C33.744 44 35.776 44.432 37.472 45.28C37.744 45.392 38.016 45.584 38.256 45.664L38.32 45.696L38.288 45.632C37.792 44.176 37.504 42.624 37.504 40.992C37.504 40.96 37.504 40.944 37.504 40.928C37.504 40.816 37.504 40.72 37.504 40.624C37.504 38.848 37.872 37.104 38.4 35.536L38.464 35.44Z" fill="#CD1F43"/>
<path d="M21.184 37.152C20.992 36.912 20.832 36.672 20.784 36.368L20.768 36.272L20.848 36.32C21.168 36.528 21.52 36.608 21.872 36.608C22.608 36.608 23.376 36.256 23.968 35.84L24 35.824L24.032 35.856L24.048 35.872L24.064 35.888V35.904C23.984 36.656 23.712 37.52 22.912 37.808C22.784 37.84 22.672 37.856 22.56 37.856C22.016 37.84 21.568 37.536 21.184 37.152Z" fill="#CD1F43"/>
<path d="M39.952 36.864C39.792 36.608 39.696 36.336 39.632 36.016L39.616 35.92L39.696 35.984C40.096 36.304 40.592 36.432 41.104 36.432C41.696 36.432 42.32 36.24 42.8 35.936L42.896 35.888L42.848 36C42.608 36.672 42.016 37.392 41.296 37.536C41.232 37.552 41.168 37.552 41.12 37.552C40.656 37.52 40.224 37.28 39.952 36.864Z" fill="#CD1F43"/>
<path d="M40.864 37.856C40.96 37.872 41.056 37.888 41.136 37.888C41.408 37.888 41.68 37.824 41.936 37.728L42.016 37.696L41.984 37.776C40.992 40.256 39.792 42.656 38.56 45.024L38.512 45.104L38.48 45.024C38.224 44.352 38.16 43.616 38.16 42.88C38.16 42.336 38.208 41.792 38.224 41.232C38.4 39.648 38.784 38.096 39.264 36.624L39.296 36.544L39.344 36.624C39.68 37.184 40.24 37.76 40.864 37.856Z" fill="#CD1F43"/>
<path d="M25.232 45.04C23.744 42.752 22.608 40.352 21.504 37.904L21.456 37.792L21.552 37.84C21.84 38 22.24 38.128 22.624 38.128C22.88 38.128 23.12 38.08 23.328 37.936C23.808 37.6 24.096 37.072 24.288 36.544L24.32 36.464L24.368 36.544C25.184 38.208 25.584 40.224 25.584 42.224C25.584 43.168 25.504 44.112 25.328 45.008V45.024L25.312 45.04L25.264 45.088L25.232 45.04Z" fill="#CD1F43"/>
<path d="M26.544 52.672C25.008 50.992 24.448 48.848 24.352 46.56V46.544L24.368 46.528C26.368 45.072 29.04 44.304 31.696 44.304C33.424 44.304 35.136 44.64 36.64 45.328C37.6 45.76 38.528 46.224 39.36 46.912L39.376 46.928V46.96C39.12 49.088 38.352 51.008 37.008 52.656V52.672H36.992C35.392 53.296 33.488 53.648 31.6 53.648C29.824 53.616 28.048 53.312 26.544 52.672Z" fill="#CD1F43"/>
<path d="M53.312 30.224C53.312 30.224 52.368 29.872 52.128 29.76C49.552 28.784 46.224 28.192 43.408 28.128C43.136 24.992 42.768 23.024 42.16 21.248L42.144 21.216H42.112C40.656 21.136 34.208 20.864 31.712 20.864C29.216 20.864 22.896 21.248 21.44 21.328L21.424 21.36C20.848 23.056 20.176 25.152 19.856 28.272C17.008 28.448 13.168 29.264 10.592 30.24C10.416 30.304 10.272 30.384 10.176 30.416C10.128 30.448 10.096 30.464 10.064 30.464C10.064 30.464 10.048 30.464 10.048 30.48L9.968 30.4L10 30.544C10 30.56 10 30.56 10.016 30.56C10.416 31.008 11.872 32.752 14.576 32.816C14.624 32.816 14.672 32.816 14.72 32.816C15.6 32.816 17.104 32.656 18.096 32.208C18.352 32.096 18.816 31.904 18.944 31.856C18.992 31.952 19.136 32.208 19.2 32.416C19.488 33.216 19.84 34.384 20.08 34.88C20.448 35.632 21.056 36.24 22.064 36.256C22.08 36.256 22.096 36.256 22.112 36.256C23.008 36.256 23.616 35.536 23.728 35.376L23.776 35.328H23.712C21.216 35.2 20.192 33.872 20.032 31.888V31.856H20C19.712 31.808 19.52 31.76 19.408 31.696C19.296 31.632 19.248 31.552 19.2 31.408C19.184 31.344 19.168 31.264 19.168 31.2C19.168 30.944 19.264 30.688 19.44 30.384C19.632 30.128 19.92 29.872 20.48 29.872C20.72 29.872 20.992 29.92 21.344 30.032C22.112 30.288 22.736 30.784 23.168 31.152C23.68 31.616 25.184 33.168 26.096 33.728C26.64 34.048 27.456 34.352 28.288 34.352C28.96 34.352 29.632 34.16 30.176 33.632C31.344 32.496 31.472 31.52 31.632 30.912L31.648 30.864H31.6C29.6 30.816 27.696 30.608 25.952 30.368C25.744 30.336 25.696 30.256 25.696 30.192C25.696 30.112 25.792 30 25.952 30C25.984 30 26.016 30 26.048 30.016C26.048 30.016 29.36 30.464 31.648 30.48H31.696V30.432C31.712 30.16 31.728 29.68 31.744 29.152V29.104H31.696C30.32 29.072 28.032 28.928 25.856 28.496C25.664 28.448 25.6 28.336 25.6 28.24C25.6 28.144 25.664 28.08 25.792 28.064C25.824 28.064 25.856 28.064 25.888 28.08C26.208 28.16 29.76 28.656 31.68 28.656H31.696H31.744V28.608C31.76 28.192 31.76 27.616 31.76 27.056V27.008H31.68C31.632 27.008 31.6 27.008 31.552 27.008C30.304 27.008 28.496 26.88 25.936 26.496C25.728 26.464 25.648 26.352 25.648 26.288C25.648 26.208 25.712 26.128 25.888 26.128C25.904 26.128 25.92 26.128 25.936 26.128C25.936 26.128 29.072 26.592 31.52 26.592C31.568 26.592 31.632 26.592 31.68 26.592H31.728V26.56C31.728 26.192 31.728 25.744 31.728 25.296V25.28C31.728 25.04 31.84 24.944 31.904 24.944C31.968 24.944 32.064 25.024 32.064 25.248C32.064 25.408 32.08 25.904 32.08 26.496V26.528V26.576H32.128C34.496 26.512 36.576 26.224 37.552 26.048C37.6 26.032 37.664 26.032 37.712 26.032C37.904 26.032 37.968 26.112 37.968 26.192C37.968 26.272 37.904 26.352 37.808 26.368C37.488 26.416 34.752 26.944 32.144 27.024H32.096V27.072C32.096 27.536 32.112 28.128 32.128 28.624V28.672H32.176C33.936 28.608 35.952 28.544 37.696 28.16C37.776 28.144 37.856 28.128 37.904 28.128C38.112 28.128 38.176 28.208 38.176 28.288C38.176 28.368 38.08 28.48 37.824 28.528C36.128 28.816 33.664 29.104 32.16 29.12H32.112V29.168C32.128 29.6 32.128 30.112 32.16 30.448V30.496H32.208C35.008 30.432 37.648 30.032 38.112 29.952C38.144 29.952 38.176 29.936 38.208 29.936C38.384 29.936 38.464 30.032 38.464 30.112C38.464 30.192 38.384 30.304 38.176 30.336C37.68 30.4 34.4 30.816 32.304 30.88H32.256L32.272 30.928C32.48 31.632 32.528 32.672 33.552 33.552C34.048 33.984 34.736 34.176 35.44 34.176C36.128 34.176 36.832 33.984 37.44 33.648C38.368 33.104 39.824 31.52 40.336 31.056C40.768 30.688 41.744 29.776 43.056 29.776C43.072 29.776 43.104 29.776 43.104 29.776C43.776 29.792 44.096 29.968 44.288 30.16C44.448 30.352 44.48 30.56 44.528 30.688C44.56 30.768 44.576 30.88 44.576 30.992C44.576 31.152 44.528 31.328 44.368 31.424C44.128 31.568 43.92 31.536 43.68 31.648L43.664 31.664V31.696C43.504 32.784 43.152 34.032 42.288 34.688C41.824 35.04 41.216 35.248 40.752 35.36C40.272 35.472 39.904 35.488 39.904 35.488H39.824L39.872 35.536C39.872 35.536 40.08 35.76 40.144 35.824C40.304 35.968 40.72 36.176 41.296 36.176C41.344 36.176 41.424 36.176 41.472 36.16C42.096 36.112 42.8 35.632 43.104 35.328C43.568 34.736 43.984 33.488 44.288 32.704C44.4 32.416 44.64 31.936 44.752 31.68C45.008 31.808 45.152 31.872 45.632 32.08C46.64 32.48 47.92 32.656 48.768 32.656C48.816 32.656 48.864 32.656 48.912 32.656C50.304 32.608 51.904 31.776 52.864 30.88C53.024 30.72 53.344 30.336 53.344 30.336L53.376 30.288L53.312 30.224Z" fill="#CD1F43"/>
<path d="M33.232 47.456C33.072 47.712 33.024 48 33.024 48.288C33.024 48.752 33.2 49.248 33.472 49.584C33.488 49.616 33.52 49.616 33.536 49.616C33.568 49.616 33.6 49.6 33.616 49.568V49.536C33.616 49.264 33.44 49.008 33.44 48.704C33.44 48.64 33.456 48.544 33.488 48.48L33.52 48.4L33.568 48.464C33.84 48.928 34.288 49.2 34.752 49.344C34.928 49.392 35.104 49.408 35.296 49.408C35.904 49.408 36.48 49.136 36.88 48.64C37.072 48.384 37.216 48.032 37.216 47.696C37.216 47.536 37.184 47.392 37.104 47.232C36.816 46.672 36.224 46.352 35.632 46.256C35.536 46.24 35.424 46.24 35.328 46.24C34.448 46.288 33.664 46.672 33.232 47.456Z" fill="black"/>
<path d="M29.888 49.808C29.936 49.808 30 49.76 30.048 49.68C30.272 49.328 30.416 48.864 30.416 48.416C30.416 48.128 30.352 47.84 30.192 47.584C29.952 47.12 29.472 46.768 29.008 46.608C28.752 46.528 28.464 46.48 28.192 46.48C27.536 46.48 26.896 46.736 26.496 47.264C26.336 47.472 26.256 47.728 26.256 48C26.256 48.144 26.288 48.272 26.32 48.4C26.544 48.992 27.104 49.472 27.712 49.584C27.856 49.616 27.984 49.632 28.112 49.632C28.816 49.632 29.44 49.28 29.888 48.672L29.936 48.624L29.968 48.688C29.984 48.736 30 48.8 30 48.848C30 48.976 29.968 49.104 29.952 49.2C29.936 49.376 29.792 49.52 29.792 49.648C29.792 49.696 29.808 49.728 29.84 49.776C29.856 49.808 29.872 49.808 29.888 49.808Z" fill="black"/>
<path d="M26.704 52.144C28.24 51.488 30.08 51.12 31.904 51.12C33.296 51.12 34.656 51.328 35.872 51.792C36.176 51.936 36.512 52.032 36.816 52.128C36.896 52.032 36.928 52 36.976 51.92C35.488 51.184 33.712 50.848 31.936 50.848C30.032 50.848 28.144 51.232 26.544 51.952C26.608 52.032 26.64 52.08 26.704 52.144Z" fill="black"/>
<path d="M28.032 40.768C28.944 41.92 30.336 42.416 31.728 42.432C32.24 42.432 32.768 42.368 33.264 42.24C35.6 41.584 37.008 39.04 37.504 36.8C37.44 36.736 37.376 36.72 37.28 36.688C36.992 38 36.416 39.296 35.6 40.384C34.608 41.584 33.152 42.192 31.696 42.192C31.184 42.192 30.672 42.112 30.192 41.952C28.048 41.28 26.944 38.928 26.736 36.8C26.656 36.8 26.576 36.8 26.512 36.848C26.688 38.336 27.12 39.648 28.032 40.768Z" fill="black"/>
<path d="M10.624 18.72C11.856 21.088 14.336 21.856 16.848 21.744C18.256 21.728 19.616 21.584 21.008 21.488V21.584C20.304 23.584 19.84 25.616 19.552 27.696C15.904 27.84 12.16 27.536 9.472 25.104C7.648 23.248 7.168 20.704 7.568 18.176C8 17.664 8.448 17.216 8.912 16.704C9.504 17.344 10.464 17.84 10.624 18.72Z" fill="white"/>
<path d="M55.984 17.648C56.08 18 56.096 18.352 56.128 18.736C56.304 21.552 55.088 24.128 52.688 25.552C50.08 27.136 47.04 27.68 43.84 27.76C43.792 27.472 43.744 27.104 43.712 26.784C43.456 24.944 43.12 23.072 42.592 21.296C46.032 21.248 50.224 22.176 52.496 18.992C52.8 18.544 53.104 18.144 53.376 17.68C53.888 17.456 54.368 17.12 54.864 16.864C55.248 17.088 55.568 17.408 55.984 17.648Z" fill="white"/>
<path d="M42.912 31.856C42.928 32.928 42.576 34.048 41.632 34.56C41.168 34.816 40.656 34.912 40.144 34.88C40.128 34.784 40.096 34.672 40.128 34.544C40.912 34.576 41.664 34.288 42.096 33.632C42.384 33.152 42.496 32.624 42.496 32.032C42.608 31.952 42.752 31.888 42.912 31.856Z" fill="white"/>
<path d="M23.488 34.784C23.344 34.816 23.28 34.832 23.024 34.784C21.76 34.784 20.432 33.776 20.512 32.064C20.672 32.016 20.832 32.016 20.976 32.08C20.976 33.056 21.36 34.384 23.44 34.384C23.584 34.592 23.44 34.624 23.488 34.784Z" fill="white"/>
</g>
<defs>
<clipPath id="clip0_1_3">
<rect width="64" height="64" fill="white"/>
</clipPath>
</defs>
</svg>
