<svg width="64" height="64" viewBox="0 0 64 64" fill="none" xmlns="http://www.w3.org/2000/svg">
<g clip-path="url(#clip0_1_29)">
<rect width="64" height="64" fill="white"/>
<path d="M56.992 19.408V15.744L56.096 14.832C44.576 3.872 19.904 18.256 11.52 25.2L7.376 31.616L12.528 30.336C4.624 40.256 7.44 46.768 7.776 47.44C8.608 49.776 10.512 51.648 13.584 52.88C15.92 53.808 18.576 53.936 20.848 53.824C30.672 53.36 42.288 47.232 49.792 40.72L49.968 40.576L51.456 33.04L48.544 34.656C38.416 39.104 30.272 41.568 30.272 41.568C24.944 43.232 22.496 43.504 20.752 43.088L20.544 43.024C20.064 42.832 19.984 42.4 19.984 42.288C19.904 38.96 25.648 31.792 28.528 28.688C31.216 25.792 35.456 22.624 39.04 21.12C41.44 20.112 42.992 19.712 43.712 19.776C43.52 20.4 43.184 21.168 42.72 22.096C42.72 22.096 38.88 29.664 38.72 29.968L56.992 19.408Z" fill="#BC945C"/>
<path d="M34.224 18.88C30.928 20.624 27.136 24.128 25.952 25.392C16.288 35.68 9.52 49.44 30.672 42.848C30.672 42.848 38.896 40.352 49.104 35.872C20.208 60.288 -7.072 50.08 19.776 24.4C17.328 24.96 14.864 25.488 12.448 26.16C21.04 19.04 44.624 5.77601 55.152 15.792L43.904 22.688C48.736 13.232 40.032 15.456 34.224 18.88Z" fill="#860038"/>
</g>
<defs>
<clipPath id="clip0_1_29">
<rect width="64" height="64" fill="white"/>
</clipPath>
</defs>
</svg>
