<svg width="64" height="64" viewBox="0 0 64 64" fill="none" xmlns="http://www.w3.org/2000/svg">
<g clip-path="url(#clip0_1_4)">
<rect width="64" height="64" fill="white"/>
<path d="M55.152 32.112C55.152 25.952 52.752 20.16 48.384 15.808C44.64 12.048 39.808 9.728 34.56 9.184C34.432 9.056 34.288 8.944 34.16 8.864C32.32 7.664 30.784 8.56 29.712 9.072C29.648 9.104 29.536 9.136 29.44 9.216C27.44 9.456 25.488 9.952 23.664 10.64C23.456 10.32 23.2 10.016 22.912 9.728C21.808 8.624 20.32 8 18.72 8C15.472 8 12.816 10.64 12.816 13.904C12.816 15.264 13.28 16.576 14.128 17.6C10.912 21.552 8.976 26.608 8.976 32.128C8.976 38.288 11.376 44.08 15.744 48.432C17.872 50.56 20.336 52.224 23.04 53.376C22.88 54.592 23.088 55.408 23.312 55.76C22.976 56.048 22.832 56.224 22.768 56.544C22.224 57.28 23.536 58.208 24.08 58.624C25.168 59.472 25.744 59.328 26.624 59.28C27.68 59.232 28.688 58 29.232 57.184C30.384 57.024 30.592 57.2 30.624 57.344C30.976 57.296 31.488 57.2 32.16 56.912C33.712 56.272 33.248 55.488 33.104 55.344C33.056 55.312 33.04 55.248 32.992 55.184C36.64 55.04 40.16 54.064 43.28 52.304C43.392 52.432 43.52 52.576 43.616 52.736C43.952 53.232 44.128 54.864 44.208 55.68C44.272 56.528 44.416 57.088 44.832 58.4C45.248 59.728 45.408 58.752 45.424 58.4C45.44 58.048 45.52 56.752 45.456 55.824C45.408 54.896 45.392 53.568 45.568 52.992C45.744 52.416 45.424 52.272 45.328 52.176C45.232 52.064 45.328 52.032 45.088 51.312C45.072 51.264 45.056 51.248 45.056 51.184C46.24 50.384 47.328 49.472 48.368 48.432C52.752 44.064 55.152 38.272 55.152 32.112Z" fill="black"/>
<path d="M29.92 54.096C29.648 53.856 29.216 53.552 29.152 53.504C29.104 53.456 28.944 53.52 28.816 53.568C28.816 53.568 28.928 53.616 29.008 53.728C29.136 53.856 29.488 54.128 29.632 54.272C29.776 54.4 29.728 54.56 29.68 54.672C29.664 54.784 29.84 54.656 30.048 54.528C30.272 54.4 30.192 54.32 29.92 54.096Z" fill="#BB9753"/>
<path d="M29.008 54.992C28.864 55.04 28.704 54.992 28.608 54.896C28.496 54.784 27.904 54.288 27.808 54.176C27.696 54.064 27.712 53.92 27.808 53.856C27.616 53.872 27.488 53.872 27.344 53.872C27.216 53.888 27.008 53.888 27.168 54.048C27.312 54.192 28.112 54.944 28.256 55.088C28.4 55.232 28.544 55.232 28.688 55.2C28.832 55.184 29.168 54.944 29.008 54.992Z" fill="#BB9753"/>
<path d="M31.968 25.088C32.032 24.912 32.176 24.544 32.288 24.272C32.032 24.272 31.68 24.304 31.472 24.304C31.28 24.304 31.344 24.592 31.312 24.768C31.28 24.976 31.648 24.8 31.6 25.072C31.584 25.184 31.904 25.264 31.968 25.088Z" fill="#BB9753"/>
<path d="M26.864 50.336C26.816 50.336 26.688 50.32 26.624 50.288H26.592L26.464 50.272C26.528 50.32 26.576 50.432 26.48 50.48C26.336 50.576 25.872 50.64 25.392 50.608C24.912 50.592 24.8 50.32 24.784 50.144C24.784 50.032 24.8 49.936 24.8 49.744C24.8 49.552 24.752 49.408 24.848 49.328C24.96 49.264 24.944 49.44 25.008 49.44C25.312 49.44 26.368 49.552 26.624 49.584C26.88 49.6 26.864 49.472 26.8 49.296C26.784 49.248 26.736 49.264 26.768 49.296C26.736 49.392 26.496 49.344 26.496 49.344C26.496 49.344 26.032 49.312 25.728 49.296C25.408 49.28 25.168 49.248 24.992 49.2C24.816 49.168 24.576 49.168 24.592 49.248C24.608 49.344 24.64 50.448 24.656 50.608C24.656 50.768 24.672 50.816 24.752 50.816C24.944 50.816 26.32 50.832 26.64 50.832C26.96 50.832 26.928 50.8 26.944 50.624C26.976 50.48 26.928 50.336 26.864 50.336Z" fill="#BB9753"/>
<path d="M28.432 15.728C28.528 15.84 28.624 15.92 28.752 16.016C28.96 15.776 29.168 15.584 29.376 15.392C29.376 15.392 29.376 15.392 29.376 15.376C29.504 15.248 29.648 15.104 29.808 14.944C30.272 14.512 30.72 14.16 31.232 13.824C31.52 13.648 31.744 13.472 32.016 13.312C32.016 13.296 32.016 13.296 32.016 13.28C32.32 13.104 32.528 12.992 32.528 12.992C32.528 12.992 32.832 12.864 33.232 12.688C33.68 12.528 34.208 12.384 34.896 12.24C34.944 12.08 34.944 11.696 34.912 11.568C34.896 11.072 34.352 10.592 34.352 10.592C34.4 10.56 34.32 10.304 34.288 10.08C33.664 10.256 32.864 10.592 32.16 10.944C32.048 10.992 32.048 10.992 31.792 11.136V11.12C31.664 11.168 31.52 11.264 31.424 11.312C31.216 11.424 30.88 11.616 30.544 11.872C30.048 12.208 29.44 12.656 28.88 13.152C28.56 13.424 28 14.096 28 14.096C27.904 14.224 27.824 14.336 27.76 14.448C27.808 14.576 27.824 14.688 27.872 14.784C27.92 14.928 28.112 15.456 28.432 15.728Z" fill="#BB9753"/>
<path d="M30.96 24.304C30.56 24.128 30.208 23.696 29.952 23.216C29.952 23.216 29.968 23.152 29.856 23.152C29.744 23.152 29.36 23.12 28.688 22.88C28.016 22.64 27.936 22.784 27.84 23.072C27.744 23.36 27.68 23.872 27.664 24.736C27.648 25.6 28.016 26.128 28.256 26.048C28.368 26 28.656 25.872 28.976 25.712L29.856 25.344C30.224 25.216 30.656 24.976 30.8 24.88L31.04 24.896C31.072 24.56 31.056 24.368 30.96 24.304Z" fill="#BB9753"/>
<path d="M36 22.912C35.408 22.88 34.72 22.976 34.064 23.248L33.744 23.344C33.568 23.44 33.344 23.52 33.184 23.632C32.272 24.192 32.24 24.672 32.448 24.832C32.624 24.992 33.04 25.072 33.696 25.488L33.952 25.728L33.968 25.744C34.944 26.464 35.184 26.064 35.344 25.728C35.488 25.392 35.808 24.384 35.904 23.856C35.952 23.504 36.032 23.184 36 22.912Z" fill="#BB9753"/>
<path d="M29.616 28.224C29.472 27.904 29.44 28.16 29.024 28.784C28.832 29.104 27.792 30.256 27.712 30.336C26.8 31.456 25.04 32.864 25.04 32.864C24.256 33.584 23.824 34.112 23.552 34.544L24.576 37.76C25.024 38.384 25.664 39.28 25.904 39.648C26.256 40.24 26.256 40.96 26.4 40.848C26.544 40.736 26.88 40.416 26.992 40.336C27.104 40.24 27.2 40.144 27.152 39.936C27.104 39.744 26.88 38.688 26.96 37.952C27.024 37.104 27.424 36.192 27.712 35.68C28 35.168 28.8 33.552 29.024 33.12C29.216 32.688 29.584 32.192 29.664 31.792C29.744 31.392 30.096 30.48 30.24 30.064C30.24 29.808 30 29.088 29.616 28.224Z" fill="#BB9753"/>
<path d="M38.112 37.648C38.112 37.232 37.872 36.912 37.408 36.144C36.944 35.392 36.848 35.072 36.784 34.288C36.736 33.792 36.784 33.136 36.832 32.512L35.488 31.168L35.456 29.984L35.408 29.728C35.04 27.952 35.888 25.84 36.128 25.264C36.384 24.64 37.328 22.88 37.68 22.352C37.504 22.256 37.04 22.032 36.768 21.888C36.496 21.744 36.368 21.696 36.304 21.792C36.24 21.888 36.144 21.952 36.016 22.112C35.76 22.464 35.984 22.416 36.048 22.416C36.112 22.416 36.416 22.816 36.48 22.896C36.528 22.992 36.48 23.056 36.352 23.344C36.176 23.712 36.08 24.576 35.952 25.104C35.52 26.656 34.864 26.512 34.544 26.304C34.24 26.112 34.144 26.416 33.84 26.848C33.776 26.96 33.6 27.184 33.36 27.44L33.088 27.856L31.408 29.472C31.408 29.472 30.832 30.064 30.656 30.144C30.416 30.544 30.224 31.024 29.936 31.872C29.536 33.072 28.656 34.672 28.272 35.296C27.312 36.848 27.152 38.304 27.296 39.216C27.44 40.112 27.568 40.064 27.76 40.064C27.952 40.064 28.432 40.672 28.736 41.04C29.056 41.408 29.184 41.248 29.344 41.136C29.856 40.736 30.896 40.064 32.368 39.36C32.992 39.072 33.824 38.736 34.624 38.496L35.44 38.24C36.208 38.032 36.896 37.904 37.248 37.936C37.776 37.968 38.144 38.112 38.112 37.648Z" fill="#BB9753"/>
<path d="M26.624 53.648C27.488 53.616 28.688 53.344 29.216 53.104C29.28 53.12 29.392 53.2 29.584 53.264C29.648 52.688 29.296 51.488 29.088 50.96C28.944 50.608 28.816 50.352 28.656 49.984C28.176 49.888 27.568 49.632 27.152 49.472C27.152 49.808 27.2 50.688 27.296 51.28C27.12 51.296 26.864 51.312 26.56 51.312C26.608 51.936 26.656 53.104 26.624 53.648Z" fill="#008348"/>
<path d="M42.752 51.744C42.592 51.584 42.944 51.088 43.104 50.176C43.264 49.248 43.28 47.712 42.608 46.816C42.288 46.4 42.112 46.112 42.064 45.936C39.952 47.472 37.536 48.496 34.96 48.928C34.928 48.976 34.912 49.04 34.864 49.072C34.496 49.552 33.776 50.256 33.216 50.528C32.672 50.816 32.048 51.024 31.712 51.136C31.648 51.712 31.536 52.976 31.696 53.408C31.744 53.568 32.416 53.968 32.64 54.384C32.672 54.432 32.688 54.48 32.688 54.512C36.32 54.4 39.76 53.424 42.752 51.792C42.8 51.76 42.784 51.744 42.752 51.744Z" fill="#008348"/>
<path d="M47.92 16.256C44.416 12.752 39.936 10.528 35.104 9.888C35.504 10.656 35.552 11.552 35.584 12.112C36.288 11.808 36.8 11.648 37.104 11.184C37.392 10.72 37.776 10.816 38.032 11.152C38.288 11.488 38.288 11.904 37.632 12.336C36.976 12.752 36.48 12.944 36.352 13.008C36.208 13.072 36.336 13.2 36.496 13.472C36.656 13.744 37.072 14.4 37.12 15.792C37.12 15.808 37.12 15.824 37.12 15.84C39.728 16.64 42.144 18.08 44.128 20.08C47.344 23.296 49.12 27.584 49.12 32.128C49.12 34.736 48.528 37.264 47.44 39.552C47.6 39.616 47.776 40.144 47.856 40.816C47.888 41.168 47.872 41.568 47.76 41.792C47.648 42.048 46.816 43.312 46.384 43.68C46.224 43.824 45.84 43.808 45.68 43.568C45.52 43.328 45.504 43.456 45.376 43.584C45.248 43.712 44.816 44.336 44.72 44.496C44.608 44.656 44.256 44.816 44.48 45.456C44.72 46.096 44.976 46.576 44.896 46.944C44.8 47.296 44.768 47.408 45.248 47.808C45.728 48.208 45.712 48.72 45.504 49.024C45.36 49.216 45.168 49.776 45.072 50.304C50.752 46.224 54.48 39.568 54.48 32.064C54.512 26.128 52.16 20.496 47.92 16.256Z" fill="#008348"/>
<path d="M22.192 48.656C22.144 48.048 22.032 46.96 22.464 46.192C21.6 45.6 20.8 44.928 20.032 44.176C16.8 40.944 15.04 36.656 15.04 32.112C15.04 27.232 17.104 22.848 20.384 19.728C20.416 19.68 20.448 19.6 20.512 19.552C19.952 19.728 19.36 19.824 18.752 19.824C17.2 19.824 15.712 19.216 14.592 18.112C11.408 22.064 9.648 26.976 9.648 32.128C9.648 38.112 11.984 43.76 16.208 47.968C18.224 49.984 20.592 51.584 23.152 52.704C23.248 52.224 23.408 51.696 23.616 51.152C23.808 50.64 23.504 49.44 23.008 48.816C22.768 48.72 22.416 48.672 22.192 48.656Z" fill="#008348"/>
<path d="M28.128 10.064C26.72 10.32 25.328 10.688 24.016 11.216C24.448 12.032 24.656 12.976 24.656 13.92C24.656 15.184 24.256 16.384 23.536 17.408C24.768 16.688 26.112 16.128 27.488 15.728C27.584 15.632 27.664 15.552 27.776 15.472C27.264 14.608 26.576 13.232 27.168 11.392C27.328 10.848 27.712 10.416 28.128 10.064Z" fill="#008348"/>
<path d="M20.416 24.752C20.176 24.688 20 24.944 19.904 25.168C19.792 25.376 19.664 25.616 20.016 26.096C20.352 26.576 20.56 26.864 21.168 26.832C21.456 26.816 21.712 26.592 21.792 26.48C21.872 26.368 21.904 26.576 21.76 26.784C21.616 26.992 21.504 27.504 21.776 27.84C22.048 28.176 22.592 28.464 23.328 28.032C24.064 27.6 24.368 27.088 24.496 26.848C24.624 26.608 24.624 26.512 24.496 26.368C24.368 26.224 23.952 25.552 23.872 24.224C23.824 23.424 23.968 22.896 23.472 22.608C22.976 22.32 21.824 21.648 21.696 20.336C21.648 19.84 21.68 19.072 21.184 19.472C20.688 19.888 20.688 20.176 20.624 20.448C20.576 20.752 20.816 21.168 21.024 21.424C21.232 21.712 21.488 22.336 21.68 22.496C21.872 22.656 22 22.784 22.16 22.8C22.32 22.816 22.96 22.816 23.12 22.864C23.28 22.912 23.376 23.12 22.976 23.12C22.576 23.12 22 23.232 21.712 23.264C21.44 23.296 21.2 23.312 21.088 23.856C20.96 24.4 20.784 25.024 20.768 25.216C20.752 25.408 20.64 25.52 20.64 25.632C20.64 25.744 20.848 26.256 21.344 25.744C21.84 25.232 22.016 24.704 22.112 24.464C22.208 24.208 22.304 24.256 22.224 24.64C22.128 25.04 22.112 26.016 22.288 26.352C22.48 26.72 22.896 27.104 23.408 26.832C23.52 26.784 23.696 26.688 23.84 26.704C23.984 26.72 23.808 26.976 23.68 27.072C23.552 27.184 23.136 27.632 22.432 26.976C22.256 26.816 22 26.464 21.952 26.016C21.936 25.872 21.744 25.824 21.648 25.952C21.552 26.08 21.072 26.528 20.736 26.208C20.4 25.888 20.256 25.712 20.448 25.024C20.432 24.912 20.496 24.784 20.416 24.752Z" fill="#F9A980"/>
<path d="M20.784 23.76C20.72 24 20.64 24.304 20.608 24.384C20.576 24.496 20.416 24.72 20.272 24.416C20.128 24.112 20.128 23.872 20.368 23.648C20.432 23.584 20.544 23.44 20.624 23.504C20.656 23.616 20.784 23.696 20.784 23.76Z" fill="#F9A980"/>
<path d="M21.584 22.928C21.44 22.992 21.12 22.992 21.008 23.248C20.944 23.408 20.656 23.232 20.8 23.04C20.944 22.848 21.056 22.864 21.136 22.8C21.232 22.752 21.264 22.592 21.44 22.672C21.6 22.784 21.632 22.912 21.584 22.928Z" fill="#F9A980"/>
<path d="M31.216 19.696C31.12 19.904 30.848 20.128 30.24 20.064C29.936 20.032 29.616 20.016 29.584 20.256C29.552 20.432 29.408 20.416 29.216 20.416C29.024 20.4 28.784 20.368 28.784 20.432C28.768 20.496 29.648 21.04 29.952 21.168C30.24 21.312 30.688 21.616 31.024 21.584C31.488 21.536 31.888 21.296 32.576 20.576C32.864 20.288 33.088 20.128 32.832 20C32.656 19.936 32.464 19.888 32.224 19.888C31.936 19.888 31.44 19.856 31.216 19.696Z" fill="#F9A980"/>
<path d="M27.888 19.712C27.632 19.696 27.616 19.536 27.776 19.264C27.936 18.992 28.08 18.752 28.288 18.592C28.32 18.704 28.4 18.864 28.496 18.912C28.352 19.072 28.176 19.248 28.208 19.632L27.888 19.712Z" fill="#F9A980"/>
<path d="M37.552 17.68C37.184 17.008 36.544 17.344 36.24 17.84C35.936 18.336 35.6 18.896 35.584 19.728C35.376 19.664 35.152 19.728 35.04 19.904C34.992 20 34.192 19.888 33.952 19.952C33.68 20.016 33.6 19.856 33.888 19.488C34.176 19.12 35.168 17.76 35.104 16.752C35.088 16.448 35.12 16.4 35.168 16.16C35.216 15.872 35.264 15.872 34.88 15.664C34.64 15.536 34.624 15.168 34.592 14.88C34.544 14.576 34.48 14.576 34.144 14.64C33.936 14.672 33.504 14.4 33.296 14.096C32.8 14.144 32.336 14.448 31.872 14.768C31.408 15.088 29.76 16.528 29.344 16.8C29.744 17.008 29.856 17.424 29.712 18.16C29.68 18.32 29.712 18.368 29.824 18.272C29.936 18.16 30.432 17.648 30.416 17.2C30.4 16.768 30.208 16.528 30.16 16.464C30.128 16.416 30.304 16.192 30.496 16.64C30.688 17.088 30.64 17.712 30.048 18.416C29.456 19.12 28.992 19.088 28.736 19.216C28.48 19.344 28.24 19.536 28.464 19.92C28.688 20.304 29.136 20.16 29.328 20.032C29.504 19.904 29.76 19.76 30.304 19.824C30.88 19.872 31.056 19.52 30.672 19.12C30.544 18.992 30.224 18.72 30.624 18.72C30.864 18.72 31.136 19.232 31.296 19.376C31.456 19.52 31.808 19.568 32.272 19.616C32.752 19.648 33.488 19.824 33.488 20.288C33.488 20.576 33.328 20.656 33.136 20.432C33.072 20.336 32.944 20.48 32.848 20.576C32.544 20.88 31.76 21.696 31.216 21.84C30.656 21.984 30.464 21.824 29.728 21.44C28.992 21.04 28.32 20.656 28.112 20.528C27.92 20.4 27.504 20.112 27.696 20.688C27.888 21.264 28.368 21.856 29.344 22.176C30.304 22.496 30.432 22.608 30.672 22.72C30.88 22.832 30.768 22.928 30.48 22.896C30.224 22.864 29.968 22.64 30.176 23.136C30.384 23.616 30.72 24.144 31.696 24C32.672 23.872 32.704 23.68 33.328 22.64C33.44 22.464 33.536 22.592 33.472 23.056C33.952 22.816 34.224 22.752 34.512 22.688C34.8 22.624 35.536 22.368 36.032 21.456C36.288 20.992 36.432 20.832 36.368 20.368C36.352 20.192 36.624 19.824 36.88 19.584C37.2 19.296 37.904 18.352 37.552 17.68ZM33.264 18.576C33.36 18.592 33.36 18.592 33.328 18.592C33.024 18.592 32.576 18.496 32.24 18.272C31.904 18.032 31.808 17.936 31.84 17.616C31.872 17.424 31.888 17.312 31.888 17.216C31.904 17.168 31.904 17.12 31.904 17.072C31.936 16.912 31.92 16.8 31.872 16.768C31.84 16.736 31.824 16.72 31.76 16.72C31.712 16.72 31.6 16.768 31.472 16.864C31.296 16.72 31.104 16.576 30.976 16.448C30.864 16.352 30.8 16.288 30.768 16.272C30.736 16.24 30.704 16.224 30.672 16.16C30.672 16.128 30.688 16.096 30.72 16.032C30.752 16 30.768 16 30.832 16H30.848H30.864C30.896 16 30.96 16 30.992 15.952C31.024 15.904 31.04 15.824 31.024 15.712C31.024 15.712 31.04 15.696 31.12 15.696C31.136 15.696 31.168 15.696 31.168 15.696C31.2 15.696 31.216 15.696 31.216 15.696C31.264 15.696 31.28 15.696 31.312 15.68C31.36 15.664 31.36 15.632 31.36 15.584C31.376 15.536 31.376 15.536 31.424 15.536C31.456 15.536 31.488 15.536 31.568 15.552C31.584 15.552 31.584 15.552 31.6 15.552C31.648 15.552 31.696 15.504 31.712 15.488L31.728 15.472C31.744 15.44 31.776 15.424 31.824 15.424C31.84 15.424 31.856 15.424 31.872 15.424C31.92 15.44 31.968 15.44 32 15.456C32.048 15.472 32.096 15.488 32.144 15.488C32.256 15.488 32.288 15.424 32.304 15.344C32.336 15.216 32.352 15.184 32.416 15.184C32.464 15.184 32.528 15.216 32.592 15.248C32.656 15.296 32.736 15.296 32.768 15.296C32.832 15.296 32.912 15.248 32.928 15.152C32.928 15.152 32.928 15.136 32.96 15.136C33.008 15.136 33.104 15.168 33.216 15.232L33.264 15.264C33.44 15.36 33.776 15.552 34.176 16.016C34.272 16.128 34.304 16.192 34.288 16.208C34.288 16.208 34.272 16.208 34.256 16.208C34.208 16.224 34.096 16.24 34.08 16.384C34.064 16.448 34.048 16.528 34.032 16.528C34.032 16.528 34.016 16.512 34 16.48C33.968 16.432 33.952 16.384 33.888 16.384C33.872 16.384 33.872 16.384 33.856 16.384C33.856 16.384 33.84 16.368 33.84 16.336C33.824 16.304 33.808 16.24 33.728 16.24C33.696 16.24 33.68 16.256 33.664 16.272C33.664 16.272 33.664 16.272 33.648 16.272C33.632 16.24 33.616 16.176 33.536 16.176C33.52 16.176 33.504 16.176 33.488 16.176H33.472C33.472 16.176 33.472 16.16 33.456 16.144C33.44 16.112 33.424 16.096 33.392 16.096C33.36 16.096 33.344 16.112 33.328 16.112C33.296 16.128 33.28 16.128 33.264 16.128C33.248 16.128 33.248 16.128 33.248 16.112C33.216 16.064 33.2 16.064 33.184 16.064C33.152 16.064 33.136 16.08 33.088 16.096C33.072 16.112 33.04 16.128 33.04 16.128C33.04 16.128 33.024 16.128 33.008 16.112C32.992 16.096 32.96 16.064 32.944 16.064C32.896 16.064 32.896 16.096 32.848 16.112L32.832 16.128C32.816 16.16 32.8 16.16 32.784 16.16C32.784 16.16 32.768 16.16 32.752 16.16C32.736 16.144 32.704 16.144 32.704 16.144C32.656 16.144 32.608 16.192 32.592 16.192C32.576 16.224 32.576 16.224 32.576 16.224C32.576 16.224 32.56 16.224 32.544 16.208C32.528 16.192 32.496 16.192 32.496 16.192C32.432 16.192 32.384 16.24 32.368 16.304C32.352 16.352 32.336 16.352 32.32 16.352H32.304C32.272 16.352 32.256 16.336 32.24 16.336C32.144 16.336 32.128 16.432 32.112 16.512C32.112 16.528 32.112 16.544 32.096 16.56C32.064 16.704 32 17.312 32.032 17.456C32.048 17.6 32.224 17.6 32.304 17.6C32.448 17.6 32.608 17.568 32.848 17.552C33.28 17.504 34.096 17.248 34.512 16.912C34.624 16.816 34.688 16.816 34.72 16.816C34.752 16.816 34.752 16.816 34.768 16.832C34.768 16.848 34.72 16.976 34.608 17.04C34.592 17.056 34.592 17.056 34.576 17.072C34.448 17.184 34.144 17.472 33.52 17.568C32.928 17.68 32.4 17.776 32.192 17.776C32.16 17.776 32.16 17.776 32.144 17.776C32.128 17.776 32.128 17.776 32.112 17.776C32.08 17.776 32.064 17.792 32.064 17.824C32.048 17.856 32.064 17.888 32.112 17.936C32.16 17.984 32.256 18 32.32 18C32.352 18 32.368 18 32.384 18C32.4 18 32.48 18.048 32.528 18.112C32.656 18.24 32.848 18.4 33.104 18.4C33.424 18.4 33.872 18.064 34.016 17.952C34.064 17.904 34.208 17.824 34.304 17.808C34.288 17.824 34.272 17.856 34.256 17.872L34.24 17.904C33.872 18.256 33.568 18.576 33.264 18.576ZM37.088 18.192C36.896 18.336 36.768 18.384 36.752 18.64C36.736 18.896 36.704 19.312 36.592 19.36C36.464 19.408 36.48 19.12 36.448 19.216C36.4 19.344 36.256 19.28 36.192 19.168C36.176 19.12 35.728 19.12 36.08 18.608C36.4 18.144 36.656 17.888 36.88 17.792C37.12 17.68 37.536 17.888 37.088 18.192Z" fill="#F9A980"/>
<path d="M45.824 39.392C45.76 39.184 45.872 38.832 46.336 39.088C46.784 39.344 47.12 39.552 46.8 40.512C46.48 41.488 46.24 42.064 46.128 42.48C46.016 42.896 45.52 43.408 45.68 42.72C45.84 42.016 45.936 41.184 45.856 40.752C45.728 39.968 45.984 40 45.904 39.664C45.872 39.552 45.856 39.456 45.824 39.392Z" fill="#F9A980"/>
<path d="M47.52 40.224C47.648 40.624 47.792 41.488 47.568 41.856C47.36 42.208 46.688 43.184 46.448 43.44C46.192 43.696 46 43.584 46.16 43.312C46.32 43.04 46.528 42.688 46.528 42.56C46.528 42.432 46.512 42.288 46.72 41.888C46.928 41.488 47.312 40.112 47.344 40C47.392 39.888 47.488 40.128 47.52 40.224Z" fill="#F9A980"/>
<path d="M42.912 43.52C42.8 43.2 42.752 42.736 42.576 42.464C42.72 42.064 43.2 41.04 43.984 40.688C44.08 40.656 44.128 40.56 44.096 40.496C44.064 40.432 44.208 40.368 44.272 40.624C44.336 40.88 44.464 41.584 44.464 41.584C44.496 41.744 44.432 41.872 44.4 42.08C44.368 42.288 44.272 42.784 44.336 43.024C44.384 43.28 44.48 43.456 44.96 43.344C45.216 43.296 45.2 43.216 45.264 43.008C45.328 42.8 45.536 42.192 45.6 41.84C45.664 41.504 45.616 40.672 45.552 40.464C45.488 40.256 45.584 39.52 45.52 39.376C45.472 39.232 45.424 39.024 44.976 38.88C44.528 38.736 44.4 38.704 44.112 39.008C43.808 39.312 43.712 39.44 43.552 39.584C43.408 39.728 43.056 39.6 43.36 39.312C43.664 39.024 43.952 38.736 44.032 38.656L43.936 38.416H43.776C43.296 38.896 42.656 39.184 42.224 39.28C42.064 39.312 41.76 39.328 41.968 39.616C42.016 39.68 42.032 39.888 42.16 39.808C42.288 39.744 42.48 39.408 42.656 39.552C42.832 39.696 42.624 40.032 42.4 40.192C42.192 40.352 41.952 40.512 41.792 40.592C41.632 40.688 41.536 40.768 41.552 41.056C41.568 41.344 41.584 41.856 41.424 42.256C41.264 42.656 41.36 42.752 41.488 43.008C41.632 43.28 41.856 43.504 41.936 43.936C42 44.368 42.048 44.48 42.336 44.432C42.624 44.4 42.736 44.272 42.832 44.096L42.912 43.52Z" fill="#F9A980"/>
<path d="M32.56 12.56C32.816 12.592 33.072 12.576 33.136 12.4C33.184 12.224 33.152 12.112 33.072 12.096C33.008 12.064 32.944 12.064 33.008 11.92C33.04 11.76 33.168 11.776 33.152 11.52C33.136 11.264 32.96 11.248 32.784 11.328C32.608 11.376 32.544 11.472 32.384 11.664C32.224 11.872 32.288 11.52 32.336 11.472C32.384 11.424 32.432 11.008 32.208 10.928C32.08 10.976 31.952 11.056 31.84 11.104C31.808 11.168 31.792 11.28 31.728 11.376C31.632 11.616 31.536 11.424 31.44 11.328C31.2 11.456 30.992 11.584 30.832 11.68C30.816 11.696 30.8 11.712 30.784 11.712C30.8 11.856 30.96 12.032 31.072 12.112C31.2 12.176 31.12 12.352 30.976 12.352C30.832 12.352 30.656 12.256 30.48 12.48C30.304 12.688 30.432 12.896 30.592 12.896C30.768 12.896 30.896 12.944 30.96 13.168C31.008 13.36 31.072 13.456 31.296 13.472C31.536 13.488 31.664 13.312 31.728 13.2C31.776 13.088 31.872 12.928 31.984 12.992C32.128 13.04 32.112 13.184 32.048 13.36C32.224 13.264 32.384 13.184 32.56 13.072C32.528 12.912 32.432 12.784 32.384 12.72C32.288 12.576 32.32 12.544 32.56 12.56Z" fill="#008348"/>
<path d="M34.544 9.96799C34.48 9.98399 34.368 10.016 34.272 10.016C34.32 10.208 34.4 10.48 34.336 10.528C34.288 10.576 34.064 10.592 33.92 10.656C33.76 10.704 33.376 11.056 33.584 11.312C33.776 11.584 33.856 11.728 33.872 11.856C33.904 12 34.224 12.144 34.448 11.888C34.656 11.616 34.848 11.328 34.896 11.52C34.944 11.68 34.928 12.064 34.896 12.272C34.944 12.256 34.992 12.256 35.04 12.24C35.152 11.232 34.896 10.528 34.544 9.96799Z" fill="#008348"/>
<path d="M29.648 14.784C29.52 14.688 29.488 14.528 29.632 14.496C29.792 14.448 29.984 14.432 30.368 14.24C30.736 14.08 30.544 13.808 30.384 13.728C30.208 13.664 30.208 13.488 30.208 13.328C30.224 13.152 30.176 12.912 29.856 13.04C29.536 13.168 29.648 13.488 29.552 13.6C29.456 13.712 29.392 13.664 29.408 13.504C29.424 13.344 29.28 13.232 29.216 13.2C29.168 13.168 29.024 13.152 28.912 13.152C28.576 13.456 28.272 13.776 28.032 14.096C28.08 14.208 28.208 14.336 28.288 14.352C28.384 14.384 28.496 14.448 28.496 14.624C28.496 14.784 28.16 14.784 27.92 14.8C28.08 15.232 28.24 15.536 28.464 15.776C28.512 15.76 28.592 15.744 28.656 15.712C28.944 15.584 29.024 15.168 29.056 15.056C29.104 14.928 29.216 14.96 29.312 15.104C29.36 15.216 29.376 15.312 29.376 15.424C29.536 15.264 29.68 15.12 29.84 14.976C29.792 14.88 29.728 14.832 29.648 14.784Z" fill="#008348"/>
<path d="M34.384 25.424C34.432 25.408 34.288 24.8 34.416 24.768C34.528 24.736 34.592 25.104 34.832 25.072C35.088 25.024 35.136 24.784 35.12 24.496C35.088 24.208 35.248 24.368 35.376 24.176C35.504 23.984 35.232 23.712 34.928 23.888C34.624 24.064 34.672 23.84 34.832 23.728C34.992 23.616 34.88 23.28 34.544 23.392C34.288 23.456 34.176 23.328 34.064 23.248C33.968 23.28 33.888 23.312 33.792 23.36C33.776 23.408 33.792 23.52 33.808 23.616C33.84 23.728 33.872 24.016 33.696 23.904C33.52 23.792 33.296 23.728 33.248 23.936C33.2 24.128 33.296 24.144 33.296 24.272C33.296 24.4 32.96 24.432 33.12 24.672C33.28 24.944 33.488 24.8 33.632 24.688C33.792 24.592 33.92 24.704 33.888 24.848C33.84 24.96 33.76 25.296 33.744 25.52C33.808 25.568 33.888 25.616 33.952 25.68C34.048 25.6 34.208 25.456 34.384 25.424Z" fill="#008348"/>
<path d="M29.52 24.8C29.664 24.768 29.92 25.056 30.144 24.864C30.384 24.704 30.048 24.544 30.096 24.416C30.128 24.288 30.256 24.016 30.08 23.904C29.92 23.776 29.76 23.888 29.584 24.08C29.408 24.256 29.472 23.904 29.568 23.76C29.696 23.568 29.568 23.44 29.376 23.392C29.184 23.36 29.104 23.648 28.976 23.52C28.768 23.328 28.432 23.392 28.512 23.68C28.576 23.968 28.688 24.048 28.512 24.08C28.336 24.112 28.192 23.68 28 24.032C27.808 24.384 28.128 24.496 28.096 24.768C28.064 25.04 28.16 25.328 28.352 25.344C28.512 25.376 28.672 25.184 28.768 25.072C28.864 24.96 29.072 24.896 29.056 25.088C29.04 25.232 29.024 25.52 29.024 25.696C29.344 25.536 29.696 25.376 29.888 25.296C29.904 25.296 29.904 25.296 29.92 25.28C29.824 25.248 29.712 25.184 29.584 25.104C29.376 24.992 29.376 24.848 29.52 24.8Z" fill="#008348"/>
<path d="M25.584 32.912C25.984 32.784 26.016 33.104 25.952 33.376C25.888 33.648 25.904 34.224 25.92 34.496L26.592 34.528C26.56 34.352 26.592 33.824 26.608 33.52C26.624 33.216 26.928 32.752 27.04 33.216C27.152 33.68 27.616 33.696 27.936 33.504C28.256 33.312 28.496 32.88 28.832 32.272C29.168 31.664 28.72 31.504 28.464 31.536C28.208 31.568 27.92 31.6 28.528 31.104C29.088 30.64 28.128 30.4 27.712 30.32C26.992 31.072 26.128 31.936 25.328 32.592C25.232 32.688 25.136 32.768 25.04 32.848C25.12 32.928 25.296 33.008 25.584 32.912Z" fill="#008348"/>
<path d="M24.88 37.408C25.216 37.296 25.44 38.032 25.936 37.6C26.432 37.168 26.08 36.816 26.064 36.448C26.048 36.08 26.464 35.952 26.336 35.504C26.16 34.832 25.52 35.472 25.136 35.84C24.736 36.208 24.736 35.904 25.12 35.296C25.52 34.688 24.864 34.496 24.48 34.656C24.128 34.8 23.824 34.656 23.616 34.48C23.456 34.736 23.344 34.944 23.248 35.184C22.912 35.888 23.136 35.904 23.392 35.904C23.648 35.904 24.176 36.96 24.256 37.152C24.288 37.2 24.448 37.488 24.704 37.824C24.624 37.664 24.656 37.488 24.88 37.408Z" fill="#008348"/>
<path d="M34.624 30.4C34.304 30.336 33.872 30.272 33.84 30.944C33.824 31.2 34.08 31.392 34.304 31.488C34.544 31.584 34.496 31.744 34.256 31.648C34 31.552 33.808 31.504 33.632 32.016C33.456 32.528 33.776 32.608 33.936 32.64C34.096 32.672 34.224 32.704 34.192 32.928C34.16 33.136 34.048 33.776 34.464 33.824C34.864 33.872 35.232 33.376 35.36 33.12C35.488 32.864 35.632 32.624 35.664 32.912C35.696 33.2 35.648 33.344 35.504 33.664C35.36 33.984 35.36 34.128 35.568 34.112C35.776 34.096 36.144 34.112 36.24 33.856C36.336 33.6 36.512 33.12 36.528 32.784C36.544 32.576 36.72 32.544 36.864 32.576C36.912 32.224 36.96 31.856 37.008 31.552C36.304 31.664 35.696 30.8 35.504 30.064C35.248 30.272 34.896 30.464 34.624 30.4Z" fill="#008348"/>
<path d="M31.296 30.272C31.168 30.48 30.816 31.088 30.976 31.296C31.136 31.504 31.312 31.104 31.456 31.248C31.6 31.392 31.92 31.552 31.92 31.44C31.92 31.328 31.952 31.12 32.016 30.832C32.064 30.544 32.192 30.384 32.32 30.624C32.448 30.864 32.624 31.056 33.072 30.944C33.52 30.832 33.472 30.368 33.376 30.032C33.28 29.696 33.616 29.536 33.776 29.44C33.936 29.344 34.352 29.024 34.048 28.736C33.744 28.448 33.472 28.864 33.2 28.912C32.928 28.96 33.04 28.736 33.6 28.304C34.08 27.936 33.664 27.552 33.392 27.44C32.624 28.208 31.264 29.456 30.96 29.744C30.848 29.856 30.768 29.952 30.672 30.112C31.344 29.792 31.408 30.048 31.296 30.272Z" fill="#008348"/>
<path d="M35.696 37.44C35.936 37.648 36.48 37.952 36.88 37.6C37.28 37.248 36.784 36.848 36.736 36.56C36.688 36.272 37.024 36.096 36.848 35.632C36.544 34.832 36.08 35.792 35.808 36.064C35.536 36.336 35.6 35.888 35.824 35.632C35.952 35.504 36.496 35.168 36.176 34.784C35.856 34.416 35.392 34.624 35.152 34.784C34.912 34.944 34.752 35.136 34.384 35.04C34.032 34.928 33.728 34.896 33.52 35.408C33.312 35.92 33.712 35.776 34.032 36.16C34.368 36.528 34.16 36.56 33.888 36.464C33.616 36.368 33.488 36.032 33.104 36.096C32.704 36.144 32.704 36.768 32.832 36.944C32.96 37.104 33.2 37.2 33.024 37.504C32.848 37.808 33.12 38.16 33.424 38.304C33.744 38.448 34.224 37.872 34.4 37.648C34.576 37.408 34.752 37.472 34.72 37.648C34.688 37.808 34.608 38.208 34.592 38.544C34.88 38.448 35.136 38.368 35.392 38.304C35.392 38.128 35.344 37.808 35.264 37.536C35.232 37.12 35.456 37.232 35.696 37.44Z" fill="#008348"/>
<path d="M31.072 39.328C30.64 39.456 30.576 39.264 30.288 39.152C30 39.04 29.984 39.296 30.176 39.6C30.368 39.904 30.592 40.192 30.352 40.192C30.112 40.192 29.936 40.224 29.904 40.4C29.872 40.576 29.488 40.368 29.408 40C29.312 39.632 29.232 38.912 29.04 39.264C28.848 39.616 28.672 40.208 28.176 39.936C27.68 39.664 28.016 39.312 27.76 39.072C27.504 38.816 27.28 38.496 27.52 38.048C27.76 37.6 27.984 37.984 28.224 37.984C28.464 37.984 28.496 37.776 28.272 37.616C28.064 37.456 27.792 36.688 28.768 36.752C29.136 36.768 29.552 36.64 29.856 36.416C30.176 36.176 31.024 36.304 30.672 36.896C30.336 37.488 30.432 37.616 30.64 37.392C30.832 37.184 31.088 36.784 31.456 36.896C31.824 37.008 31.664 37.296 31.44 37.616C31.2 37.936 31.344 38.16 31.536 38.272C31.728 38.384 32.064 39.056 31.072 39.328Z" fill="#008348"/>
<path d="M32.88 35.136C32.56 35.152 32.16 35.072 32.16 35.072C32.128 35.408 31.792 35.888 31.456 36.4C31.424 36.448 31.216 36.448 31.136 36.384C31.04 36.32 30.8 36.192 30.992 35.984C31.184 35.776 31.504 35.328 31.456 35.12C31.408 34.928 31.264 34.752 31.04 35.008C30.832 35.28 30.48 35.824 30.112 35.856C29.744 35.888 29.36 35.536 29.536 35.2C29.712 34.864 29.776 34.688 29.52 34.384C29.264 34.08 29.36 33.68 29.888 33.456C30.048 33.392 30.336 33.456 30.512 33.616C30.704 33.776 30.816 33.616 30.544 33.456C30.272 33.296 30.064 33.104 30.032 32.736C30 32.4 30.208 32.032 30.656 32.24C31.12 32.432 31.408 32.272 31.6 32.112C31.792 31.952 32.64 31.76 32.512 32.48C32.416 33.024 32.176 33.04 32.112 33.328C32.048 33.616 32.256 33.44 32.384 33.216C32.512 33.008 32.784 32.128 33.36 32.784C33.504 32.944 33.456 33.216 33.264 33.52C33.088 33.824 33.232 34 33.328 34.144C33.536 34.288 33.776 35.088 32.88 35.136Z" fill="#008348"/>
<path d="M31.712 11.344C31.744 11.248 31.76 11.168 31.808 11.072C31.68 11.12 31.536 11.216 31.44 11.264C31.504 11.424 31.616 11.584 31.712 11.344Z" fill="#BB9753"/>
<path d="M17.232 12.864C17.36 13.04 17.488 13.008 17.536 12.88C17.648 12.608 17.856 11.76 17.856 11.104C17.856 9.60001 18.048 9.00801 18.432 8.32001C16.704 8.41601 15.136 9.29601 14.192 10.64C15.648 11.024 16.752 12.208 17.232 12.864Z" fill="#A73832"/>
<path d="M17.088 13.712C17.264 13.472 17.056 13.344 16.96 13.216C16.496 12.56 15.424 11.376 13.968 10.992C13.456 11.856 13.152 12.816 13.152 13.888C13.152 14.368 13.2 14.816 13.312 15.232C16.048 15.472 16.928 13.936 17.088 13.712Z" fill="#A73832"/>
<path d="M19.024 8.272C18.624 8.896 18.4 9.376 18.24 11.024C18.08 12.656 17.936 13.792 16.752 14.784C15.84 15.52 14.048 15.728 13.472 15.696C13.744 16.48 14.176 17.184 14.736 17.776C16.432 17.2 17.664 16.464 19.296 14.944C20.928 13.424 21.744 11.872 22 11.296C22.16 10.928 22.464 10.432 22.256 11.264C22.048 12.08 21.28 13.84 19.68 15.344C18.112 16.848 16.672 17.616 15.008 18.048C15.984 18.944 17.312 19.504 18.768 19.504C18.816 19.504 18.832 19.504 18.896 19.504C19.216 17.488 19.712 16.816 20.704 15.968C21.664 15.104 23.04 14.656 24.208 15.152C24.304 14.784 24.336 14.352 24.352 13.888C24.352 10.848 22 8.416 19.024 8.272Z" fill="#A73832"/>
<path d="M21.312 16.08C21.168 16.176 21.056 16.24 21.248 16.4C21.568 16.72 22.048 17.328 22.4 18.16C23.168 17.52 23.744 16.656 24.064 15.696C23.776 15.312 22.832 15.136 21.312 16.08Z" fill="#A73832"/>
<path d="M20.544 16.704C19.696 17.456 19.376 18.576 19.2 19.456C20.208 19.392 21.152 19.024 21.936 18.496C21.616 17.712 21.344 17.136 21.04 16.736C20.864 16.528 20.848 16.448 20.544 16.704Z" fill="#A73832"/>
<path d="M44.656 49.952C44.976 48.912 45.504 48.928 45.328 48.528C45.152 48.128 44.88 47.824 44.672 47.6C44.464 47.36 44.624 46.816 44.624 46.576C44.608 46.144 44.272 46.08 44.224 45.6C44.176 45.12 44.16 44.736 44.512 44.24C44.864 43.76 44.384 43.776 44.224 43.472C44.064 43.168 43.968 42.752 44.112 42.144C44.176 41.824 44.144 41.744 44.064 41.696C43.968 41.664 43.6 41.584 43.6 41.584L43.04 42.672C43.136 42.88 43.168 43.216 43.168 43.424L43.024 44.336C42.896 44.544 42.688 44.896 42.688 45.2C42.688 45.504 42.384 45.824 42.416 45.968C42.448 46.112 42.848 46.48 43.072 46.88C43.312 47.28 43.584 47.856 43.584 48.848C43.584 49.84 43.264 51.168 43.232 51.328C43.2 51.504 43.104 51.648 43.376 51.904C43.648 52.16 44.08 52.624 44.24 53.68C44.4 54.736 44.512 55.296 44.576 55.344C44.64 55.392 44.624 55.488 44.624 55.68C44.624 55.872 44.8 57.008 44.928 57.216C45.056 57.424 45.04 56.016 45.024 55.584C45.008 55.184 45.04 53.216 45.12 52.912C45.184 52.624 45.264 52.304 45.008 51.952C44.768 51.6 44.336 50.976 44.656 49.952Z" fill="#A73832"/>
<path d="M25.2 20.384C24.736 20.48 24.752 20.56 25.248 20.512C25.408 20.512 27.648 20.176 27.936 20.112C28.224 20.064 28.288 20.256 28.368 20.208C28.464 20.176 28.336 20.176 28.272 19.808L27.856 19.856C27.36 19.984 25.664 20.288 25.2 20.384Z" fill="white"/>
<path d="M43.856 20.336C41.936 18.416 39.632 17.024 37.136 16.24C37.12 16.496 37.104 16.72 37.104 16.816C37.6 17.072 38.16 17.6 37.952 18.608C37.856 19.024 37.52 19.408 37.488 19.568C37.44 19.84 36.864 20.304 36.704 20.656C36.544 21.008 36.512 21.296 36.544 21.456C36.832 21.728 37.472 22.08 37.824 22.208C38.096 22.304 38.096 22.368 37.984 22.528C37.952 22.56 37.888 22.592 37.888 22.64C37.456 23.232 36.768 24.72 36.464 25.648C36.144 26.576 35.408 28.8 35.952 30.24C36.464 31.696 37.488 30.784 37.728 30.224C37.968 29.664 38.32 28.72 38.432 28.464C38.544 28.208 38.592 28.064 38.784 28.656C38.976 29.248 39.264 30.656 39.264 30.784C39.264 30.912 39.072 31.264 38.864 31.824C38.656 32.384 38.528 32.768 38.736 33.104C38.944 33.44 39.792 34.88 40.064 35.504C40.224 35.872 40.368 35.952 40.8 35.84C41.232 35.728 42.272 35.376 42.576 35.232C42.88 35.088 42.736 34.832 42.64 34.528C42.496 34.064 41.968 31.488 41.968 31.152C41.968 30.816 42.064 30.368 41.616 30.864C41.456 31.04 41.248 30.864 41.296 30.608C41.344 30.352 41.888 26.864 41.92 26.464C41.616 25.808 40.72 23.728 40.496 23.328C40.24 22.96 40.16 22.928 39.776 23.136C39.392 23.344 38.576 23.632 38.256 22.928C38.224 22.864 38.192 22.736 38.208 22.64C38.304 22.688 38.368 22.784 38.48 22.912C38.672 23.152 39.2 23.008 39.52 22.848C39.84 22.688 40.256 22.64 40.576 23.024C40.896 23.424 41.376 24.144 41.616 24.816C41.856 25.488 42.096 26.032 42.176 26.144C42.24 26.256 41.92 28.224 41.84 28.992C41.744 29.776 41.68 30.112 41.664 30.24C41.648 30.368 42.16 29.792 42.176 30.48C42.192 31.024 42.448 32.752 42.736 34.032C42.8 34.352 42.896 34.656 42.976 34.896C43.184 34.928 43.376 35.36 43.488 36.016C43.616 36.672 43.888 37.088 43.888 37.408C43.904 37.728 44 37.776 44.096 37.84C44.208 37.888 44.16 38.048 43.84 38.432C43.904 38.48 44.016 38.592 44.096 38.672C44.192 38.576 44.432 38.304 44.432 38.304C44.432 38.304 45.408 38.704 45.632 38.768C45.84 38.832 46.096 38.32 46.72 38.592C46.896 38.656 47.088 38.912 47.232 39.152C48.208 37.024 48.784 34.624 48.784 32.128C48.736 27.68 46.992 23.472 43.856 20.336Z" fill="white"/>
<path d="M42.24 44.848C41.984 44.72 41.824 44.896 41.696 43.92C41.664 43.632 41.424 43.264 41.248 43.072C41.072 42.896 41.056 42.56 41.136 42.272C41.28 41.824 41.312 41.408 41.296 41.072C41.28 40.72 41.344 40.272 41.856 40.048C41.68 39.856 41.584 39.6 41.536 39.424C40.8 39.168 40.656 39.152 40.512 38.8C40.256 38.208 40.112 37.344 40.032 36.864C40 36.624 39.984 36.416 39.984 36.224C39.744 35.776 39.232 34.8 38.816 34.064C38.656 33.776 38.528 33.552 38.448 33.392C38.096 32.768 38.448 31.968 38.624 31.472C38.8 30.992 38.944 30.56 38.784 30.08C38.624 29.6 38.624 29.488 38.592 29.296C38.56 29.104 38.4 28.848 38.192 29.536C37.984 30.208 37.568 31.2 37.328 32.24C37.184 32.832 37.12 33.456 37.152 34.08C37.184 34.544 37.28 35.008 37.472 35.424C37.936 36.384 38.496 37.28 38.416 37.808C38.352 38.352 38.24 38.368 38.224 38.448C38.128 39.488 37.68 41.472 37.456 42.048C37.216 42.624 36.304 44.672 36.128 45.552C35.968 46.208 35.568 47.664 35.216 48.496C37.888 47.984 40.336 46.848 42.384 45.216C42.416 45.072 42.4 44.928 42.24 44.848Z" fill="white"/>
<path d="M22.448 21.456C22.64 21.728 22.896 21.952 23.232 22.112C24.096 22.56 24.288 22.864 24.288 23.648C24.288 24.416 24.432 25.984 24.688 26.24C24.848 26.08 25.024 25.84 25.056 25.776C25.312 26.24 25.808 27.104 26.608 27.632C26.624 27.632 26.624 27.648 26.624 27.664C26.624 27.68 26.608 27.68 26.608 27.696C26.544 27.84 26.4 27.792 26.304 27.76C26.112 27.712 25.44 26.992 25.216 26.592C24.992 26.192 24.944 26.24 24.864 26.528C24.768 26.816 24.432 27.44 24.208 27.728C23.968 28.032 23.36 28.816 23.2 28.992C23.04 29.168 23.2 29.248 23.344 29.392C23.488 29.536 24.208 30.432 24.384 30.608C24.544 30.8 24.72 31.168 25.152 30.768C25.584 30.368 26.096 29.68 26.336 28.928C26.544 28.272 26.592 27.888 26.736 27.856C26.752 27.872 26.768 27.872 26.784 27.888C27.056 27.952 28.784 28.224 28.816 28.592C29.168 28.24 29.744 27.344 29.856 27.04C29.968 26.736 30.592 25.776 31.056 25.248C31.056 25.04 31.056 24.912 31.072 24.848C30.944 24.96 30.752 25.216 30.464 25.344C30.176 25.472 29.184 25.904 28.464 26.256C28.208 26.384 27.76 26.528 27.6 25.216C27.424 23.904 27.6 23.232 27.728 22.944C27.856 22.64 28.08 22.368 28.528 22.496C28.976 22.624 29.696 22.896 29.888 22.896C29.92 22.752 30.048 22.496 29.568 22.432C29.232 22.4 28.336 22.144 27.808 21.456C27.616 21.168 27.472 20.832 27.456 20.384C26.432 20.544 24.096 20.848 23.6 20.976C23.088 21.104 22.64 21.216 22.48 20.032C22.416 19.536 22.288 18.832 22.64 19.088C22.928 18.88 23.312 18.624 24.016 18.736C24.144 18.752 24.304 18.864 24.352 18.976C24.384 19.152 24.32 19.424 24.224 19.712C24.064 20.192 23.776 20.528 24.736 20.32C25.76 20.08 27.04 19.888 27.376 19.824C27.424 19.488 27.696 18.944 28.032 18.56C28.368 18.16 28.432 17.84 28.448 17.712C28.464 17.584 28.352 17.552 28.176 17.712C27.984 17.888 27.392 18.256 26.848 18.112C26.64 18.064 26.368 17.648 26.224 17.408C26.352 17.152 26.64 16.752 26.992 16.32C25.104 16.928 23.328 17.872 21.728 19.12C21.712 19.312 21.744 19.76 21.872 20.288C21.952 20.592 22.112 21.056 22.448 21.456Z" fill="white"/>
<path d="M23.68 45.808C24.416 45.52 24.992 45.52 25.552 46.288C25.712 46.496 25.84 47.136 27.216 46.576C26.48 45.712 26.032 44.688 25.664 43.28C25.04 41.088 23.6 38.592 24.128 37.456C23.824 37.168 23.472 36.064 23.088 36.192C22.832 36.256 22.48 36.288 22.768 35.44C22.896 35.072 23.104 34.592 23.52 34.064C24.016 33.408 24.768 32.592 26.016 31.632C26.128 31.536 26.144 31.472 26.064 31.392C25.936 31.264 25.808 31.12 25.696 31.056C25.568 30.992 25.44 31.024 25.344 31.12C25.232 31.232 25.056 31.36 24.944 31.424C24.832 31.488 23.984 30.656 23.536 30.048C23.088 29.44 22.624 29.248 22.48 29.184C22.656 28.992 23.072 28.56 22.912 28.608C22.64 28.704 22.16 28.768 21.712 28.256C21.12 27.632 21.36 27.312 21.232 27.216C21.104 27.12 20.464 27.264 19.984 26.512C19.504 25.76 19.312 25.44 19.696 24.896C19.888 24.624 19.968 24.496 19.904 24.16C19.856 23.824 19.904 23.6 20.352 23.184C20.8 22.752 21.072 22.368 21.264 22.4C21.424 22.432 20.976 21.856 20.688 21.44C20.624 21.328 20.56 21.232 20.512 21.152C20.448 20.976 20.336 20.688 20.32 20.368C17.184 23.52 15.456 27.68 15.456 32.112C15.456 36.544 17.184 40.752 20.336 43.888C21.088 44.64 21.872 45.28 22.704 45.872C23.056 45.472 23.472 45.632 23.68 45.808Z" fill="white"/>
<path d="M41.568 38.928C42.144 38.912 43.104 38.656 43.808 38.016C43.616 37.776 43.264 36.672 43.184 36.208C43.056 35.712 43.056 35.184 42.544 35.472C42.224 35.648 41.088 36.144 40.624 36.224C40.144 36.288 40.272 36.416 40.352 36.784C40.432 37.152 40.704 38.208 40.848 38.576C40.992 38.944 41.184 38.944 41.568 38.928Z" fill="white"/>
<path d="M33.776 26C33.536 25.84 32.688 25.296 32.56 25.216C32.416 25.104 32.368 25.104 32.304 25.2C32.272 25.264 32.144 25.488 31.856 25.488C31.568 25.488 31.344 25.392 31.152 25.648C30.976 25.904 29.984 27.072 29.776 27.824C29.984 28.272 30.272 29.072 30.496 29.632C31.2 29.04 33.408 26.88 33.824 26.464C34 26.304 34.016 26.16 33.776 26Z" fill="white"/>
<path d="M28.416 28.624C28.256 28.656 27.6 28.384 26.96 28.272C26.768 28.256 26.72 28.256 26.688 28.32C26.544 28.88 26.288 29.84 25.824 30.576C26 30.864 26.144 31.12 26.368 31.2C26.864 30.848 27.792 29.968 28.08 29.648C28.352 29.328 28.688 28.848 28.688 28.736C28.704 28.624 28.576 28.592 28.416 28.624Z" fill="white"/>
<path d="M37.744 11.328C37.536 11.088 37.408 11.152 37.2 11.376C36.72 11.952 35.776 12.448 34.144 12.864C32.512 13.28 30.976 14.416 30.304 14.976C29.648 15.536 27.984 16.896 27.168 17.216C26.96 17.312 26.512 17.616 27.072 17.68C27.504 17.728 27.808 17.488 28.736 16.816C29.664 16.144 30.384 15.648 31.104 14.96C31.76 14.32 32.96 13.712 34.256 13.344C35.552 12.976 37.232 12.432 37.712 11.92C37.952 11.664 37.968 11.536 37.744 11.328Z" fill="white"/>
<path d="M29.52 17.472C29.616 17.424 29.504 17.04 29.2 17.104C29.104 17.136 29.216 16.896 29.04 16.992C28.896 17.056 28.848 17.152 28.688 17.664C28.528 18.176 28.544 18.48 28.672 18.608C28.768 18.704 28.912 18.704 28.976 18.704C29.024 18.704 29.088 18.72 29.072 18.56C29.04 18.416 29.04 17.76 29.52 17.472Z" fill="white"/>
<path d="M23.92 19.328C23.92 19.04 23.776 19.04 23.52 19.04C23.216 19.04 22.896 19.152 22.656 19.248C22.688 19.36 22.672 19.808 22.72 20.096C22.896 21.008 23.216 20.88 23.44 20.848C23.648 20.816 24.048 20.656 23.888 20.656C23.728 20.656 23.728 20.544 23.744 20.288C23.776 20 23.904 19.6 23.92 19.328Z" fill="white"/>
<path d="M29.328 49.44C29.632 49.088 29.616 48.208 29.456 47.52C29.312 46.848 28.256 46.576 27.312 46.96C26.368 47.36 25.808 47.2 25.584 47.056C25.584 47.056 25.456 46.96 25.376 46.912C25.28 46.864 25.28 47.072 25.184 47.28C25.088 47.488 25.056 48.08 25.216 48.432C25.632 48.432 26.192 48.608 26.544 48.768C26.88 48.912 28.08 49.472 28.608 49.632C28.848 49.728 29.072 49.76 29.328 49.44Z" fill="white"/>
<path d="M31.44 53.456C31.408 53.328 31.344 52.576 31.344 52.368C31.344 52.16 31.392 51.616 31.408 51.44C31.424 51.264 31.472 51.104 31.168 51.12C30.88 51.152 30.192 51.072 30.08 50.72C29.936 50.288 29.52 50.208 29.296 50.208C28.88 50.208 29.296 50.656 29.424 50.992C29.568 51.344 30.08 53.36 29.856 53.376C29.616 53.392 29.856 53.584 30.048 53.728C30.416 54 31.008 53.824 31.168 53.744C31.344 53.68 31.472 53.6 31.44 53.456Z" fill="white"/>
<path d="M23.376 46.608C23.488 46.48 23.472 46.368 23.392 46.256C23.328 46.128 23.264 46.048 23.184 46C22.976 45.936 22.784 46.032 22.608 46.448C22.432 46.816 22.4 48.064 22.448 48.448C22.592 48.416 22.864 48.464 22.992 48.496C22.944 47.808 23.168 46.832 23.376 46.608Z" fill="white"/>
<path d="M26.704 58.72C26.144 58.768 25.744 58.688 25.12 58.416C24.512 58.144 23.664 57.376 23.232 56.88C23.088 56.72 22.96 56.912 23.088 57.088C23.632 57.856 24.464 58.4 25.008 58.672C25.552 58.96 26.368 58.96 26.72 58.912C27.056 58.864 27.152 58.672 26.704 58.72Z" fill="white"/>
<path d="M32.496 55.632C32.144 55.808 31.456 56.128 30.832 56.288C30.896 56.608 30.928 56.752 30.928 56.848C31.328 56.848 32.08 56.56 32.704 56.192C32.848 56.096 32.896 56 32.848 55.872C32.768 55.76 32.704 55.536 32.496 55.632Z" fill="white"/>
<path d="M28.784 53.968C28.672 53.968 28.176 54.08 28.272 54.16C28.32 54.208 28.544 54.448 28.672 54.592C28.816 54.592 29.136 54.496 29.184 54.464C29.248 54.432 29.28 54.4 29.216 54.336C29.152 54.256 28.912 54.032 28.784 53.968Z" fill="white"/>
<path d="M32.624 43.536C32.464 43.552 31.296 43.552 30.48 43.44C29.024 43.264 27.584 42.432 27.12 41.888C27.056 41.792 26.624 41.84 26.976 42.128C27.328 42.416 28.24 43.248 29.568 43.504C29.872 43.552 30.352 43.648 30.432 44.752C30.496 45.84 30.4 46.56 30.4 46.672C30.4 46.784 30.336 46.816 30.24 46.688C30.144 46.56 29.84 46.144 29.68 46.064C29.52 45.984 29.408 46 29.28 46.096C29.136 46.208 28.928 46.416 28.832 46.528L29.232 46.768C29.088 46.656 29.104 46.608 29.184 46.496C29.248 46.384 29.328 46.32 29.392 46.288C29.456 46.256 29.568 46.24 29.696 46.416C29.824 46.592 30.496 47.728 30.64 48.032C30.784 48.336 30.96 48.144 30.896 47.968C30.832 47.792 30.688 47.488 30.624 47.392C30.816 46.784 31.024 45.856 31.024 45.264C31.024 44.672 30.88 44.064 30.768 43.84C31.248 43.856 32.304 43.84 32.72 43.712C33.12 43.552 32.784 43.52 32.624 43.536Z" fill="white"/>
<path d="M24.016 51.36C23.968 51.488 23.776 51.984 23.728 52.336C23.68 52.704 23.584 53.264 23.728 54.064C23.872 54.864 23.936 55.12 23.984 55.264L24.416 55.12C24.176 54.976 23.92 54.32 23.856 52.992C23.84 52.544 24.016 51.792 24.16 51.44C24.304 51.088 24.064 51.232 24.016 51.36Z" fill="white"/>
<path d="M47.984 23.072L48.656 22.576L47.6 20.96L48.144 20.576L49.328 22.32L50.016 21.824L48.784 20.112L49.328 19.728L50.608 21.536L51.312 21.056L49.392 18.352L46.24 20.608L47.984 23.072Z" fill="white"/>
<path d="M49.872 27.04L50.912 26.56L50.192 25.008L52.608 24L52.176 23.04L48.768 24.528L49.872 27.04Z" fill="white"/>
<path d="M50.496 28.672L50.608 29.616L52.896 29.36L52.992 30.352L54.016 30.272L53.728 26.944L52.688 27.024L52.784 28.4L50.496 28.672Z" fill="white"/>
<path d="M50.608 31.936V33.056L53.984 33.04L53.968 31.92L50.608 31.936Z" fill="white"/>
<path d="M52.208 34.672C51.632 34.56 50.976 34.656 50.512 35.008C50.096 35.328 49.888 35.632 49.776 36.224C49.712 36.592 49.76 37.088 49.888 37.504L50.784 37.216C50.688 37.024 50.656 36.704 50.752 36.368C50.928 35.76 51.424 35.488 52.032 35.584C52.656 35.68 53.04 36.256 52.928 36.96C52.88 37.248 52.752 37.472 52.432 37.68L52.992 38.336C53.44 38.048 53.776 37.52 53.856 37.136C53.984 36.512 53.824 36.048 53.536 35.52C53.2 35.024 52.704 34.752 52.208 34.672Z" fill="white"/>
<path d="M51.568 39.376C51.104 39.248 50.464 39.776 50.144 40.08C49.968 40.256 49.344 40.88 49.056 40.784C48.784 40.688 48.88 40.304 48.96 40.032C49.088 39.664 49.28 39.328 49.584 39.136L49.024 38.88C48.752 39.12 48.448 39.472 48.32 39.84C48.176 40.256 48.128 40.768 48.176 41.072C48.24 41.472 48.384 41.728 48.848 41.696C49.2 41.664 50.096 41.072 50.624 40.608C50.896 40.352 51.104 40.32 51.232 40.416C51.408 40.528 51.408 40.832 51.344 41.04C51.248 41.312 51.136 41.712 50.912 41.888L51.664 42.4C51.968 42.096 52.144 41.616 52.224 41.184C52.448 40.096 51.872 39.44 51.568 39.376Z" fill="white"/>
<path d="M44.128 18.928C44.432 19.136 44.896 19.28 45.328 19.36L45.424 18.432C45.216 18.432 44.912 18.32 44.656 18.128C44.176 17.712 44.144 17.056 44.464 16.624C44.864 16.112 45.52 16 46.112 16.368C46.352 16.528 46.432 16.768 46.48 17.136L47.344 16.992C47.296 16.48 46.992 15.872 46.704 15.616C46.256 15.216 45.728 15.12 45.152 15.2C44.576 15.264 44.048 15.648 43.728 16.08C43.408 16.544 43.216 17.184 43.328 17.76C43.44 18.288 43.632 18.592 44.128 18.928Z" fill="white"/>
<path d="M12.848 36.416C12.88 36.16 12.864 35.68 13.136 35.648C13.408 35.6 13.584 35.84 13.632 36.112C13.696 36.512 13.808 36.784 13.664 37.136L14.384 37.072C14.512 36.736 14.448 36.304 14.384 35.904C14.288 35.472 14.144 35.152 13.824 34.864C13.52 34.576 13.28 34.512 12.816 34.608C12.528 34.656 12.048 35.168 12.032 36.16C12.032 36.336 11.984 36.72 11.824 36.72C11.616 36.736 11.456 36.464 11.408 36.272C11.36 35.984 11.424 35.392 11.536 35.152H10.784C10.672 35.584 10.624 36.176 10.736 36.624C10.928 37.6 11.52 37.904 12 37.856C12.512 37.776 12.768 37.248 12.848 36.416Z" fill="white"/>
<path d="M11.36 32.336L14 32.304V31.472L11.36 31.504L11.328 30.368L10.48 30.4L10.512 33.552L11.376 33.536L11.36 32.336Z" fill="white"/>
<path d="M16.16 23.968L14.112 22.816L14.128 22.784L16.832 22.736L17.472 21.76L14.128 19.824L13.616 20.592L15.92 22.016L12.784 22.112L12.352 22.944L15.648 24.864L16.16 23.968Z" fill="white"/>
<path d="M12.832 29.072C13.984 29.072 14.896 28.144 14.896 27.008C14.896 25.856 13.968 24.944 12.832 24.944C11.68 24.944 10.768 25.872 10.768 27.008C10.784 28.144 11.696 29.072 12.832 29.072ZM12.832 25.92C13.424 25.92 13.904 26.4 13.904 26.992C13.904 27.584 13.424 28.064 12.832 28.064C12.24 28.064 11.76 27.584 11.76 26.992C11.76 26.4 12.24 25.92 12.832 25.92Z" fill="white"/>
<path d="M16.224 40.576C16.224 39.424 15.296 38.512 14.16 38.512C13.008 38.512 12.096 39.44 12.096 40.576C12.096 41.728 13.024 42.64 14.16 42.64C15.296 42.64 16.224 41.696 16.224 40.576ZM14.16 41.632C13.568 41.632 13.088 41.152 13.088 40.56C13.088 39.968 13.568 39.488 14.16 39.488C14.752 39.488 15.232 39.968 15.232 40.56C15.232 41.152 14.752 41.632 14.16 41.632Z" fill="white"/>
<path d="M16.64 42.912C16.336 43.2 16.176 43.856 16.464 44.304C16.144 44.144 15.488 44.096 15.184 44.352C14.432 44.992 15.344 45.92 16.08 46.656L17.12 47.68L19.84 45.44L18.736 44.16C18.368 43.648 17.28 42.336 16.64 42.912ZM16.752 46.512C16.464 46.192 15.664 45.552 16 45.232C16.32 44.928 17.152 45.904 17.232 46.032L16.752 46.512ZM18.016 45.36L17.952 45.264C17.712 44.976 16.976 44.176 17.28 43.888C17.568 43.6 18.304 44.528 18.496 44.784L18.592 44.896L18.016 45.36Z" fill="white"/>
<path d="M25.792 49.936C25.504 49.936 25.232 49.808 25.088 49.904C24.96 49.968 25.072 50.192 25.248 50.24C25.392 50.288 26.192 50.24 26.336 50.24L26.592 50.272C26.592 49.936 26.48 49.952 26.416 49.904C26.352 49.872 26.064 49.936 25.792 49.936Z" fill="white"/>
</g>
<defs>
<clipPath id="clip0_1_4">
<rect width="64" height="64" fill="white"/>
</clipPath>
</defs>
</svg>
