<svg width="64" height="64" viewBox="0 0 64 64" fill="none" xmlns="http://www.w3.org/2000/svg">
<g clip-path="url(#clip0_1_5)">
<rect width="64" height="64" fill="white"/>
<path d="M55.536 19.84C53.648 17.76 49.472 16.064 44.096 15.04C44.128 14.416 44.496 14.16 45.168 13.696C45.504 13.456 45.904 13.168 46.32 12.8C48.064 11.152 46.016 8.64001 45.936 8.51201L44.816 7.13601L45.088 8.88001C45.264 10.064 44.832 10.496 43.52 11.408C43.36 11.52 43.2 11.648 43.088 11.776C43.152 10.976 43.184 10.08 42.912 8.96001C42.64 7.84001 42.096 7.37601 42.096 7.37601L41.952 8.99201C41.952 9.00801 41.84 10.256 40.16 11.776C40.304 11.616 40.448 11.456 40.56 11.264C41.376 10.08 41.136 8.70401 40.88 7.13601L40.816 6.81601C40.528 5.18401 40.976 4.16001 41.264 3.96801C41.552 3.63201 42.08 3.07201 42.08 3.07201C42.08 3.07201 41.792 2.94401 40.976 3.04001C39.936 3.18401 38.16 3.80801 38.208 5.24801C38.224 5.87201 38.432 6.48001 38.608 7.00801C38.8 7.56801 38.976 8.11201 38.816 8.38401C38.688 8.60801 38.288 8.76801 37.68 8.89601C35.216 9.34401 33.328 10.496 32.352 12.16C32.032 12.704 31.824 13.296 31.712 13.904C25.584 13.92 19.776 14.688 15.28 16.08C10.24 17.648 7.456 19.776 7.248 22.224C7.136 23.52 7.712 25.376 10.96 27.184L10.944 27.216L11.872 27.664L12.368 27.904C13.856 28.576 15.616 29.152 17.552 29.616C16.848 30 16.208 30.464 15.648 30.976C12.512 33.552 10.704 37.376 10.704 41.44C10.704 45.056 12.112 48.464 14.672 51.024C17.232 53.584 20.64 54.992 24.256 54.992C30.672 54.992 36.24 50.448 37.52 44.192C38.624 40.912 38.48 37.408 38.448 36.08C38.336 33.072 39.824 31.408 40.752 30.656C45.04 30.128 48.816 29.184 51.648 27.92L52.112 27.696L53.088 27.232L53.056 27.2C55.328 25.936 56.592 24.448 56.736 22.864C56.8 21.84 56.4 20.816 55.536 19.84ZM51.12 22.48C51.504 22.912 51.472 23.184 51.472 23.264C51.424 23.76 50.816 24.336 49.792 24.88C47.632 26.016 43.936 26.88 39.52 27.312C39.712 27.2 39.92 27.072 40.16 26.992L40.24 26.96C41.504 26.432 42.944 25.856 43.008 23.76C43.024 23.44 43.04 22.4 43.216 22.032C43.456 21.552 44.064 20.848 44.592 20.656C44.608 20.656 43.696 20.48 43.696 20.48C43.648 20.48 43.6 20.48 43.568 20.464C43.872 20.24 44.096 19.984 44.24 19.712C47.824 20.464 50.24 21.488 51.12 22.48ZM12.432 22.992C12.576 21.264 18.816 18.976 28.88 18.624C27.936 19.328 26.848 20.544 26.56 22.528L26.448 23.264C26.384 23.728 26.304 24.192 26.128 24.656C25.744 25.664 24.64 26.512 23.488 27.152C19.424 26.64 16.048 25.776 14.064 24.72C12.992 24.128 12.384 23.504 12.432 22.992Z" fill="black"/>
<path d="M11.184 42.432C11.536 44.224 12.56 46.352 14.592 47.776C15.2 48.208 15.872 48.544 16.592 48.816C16.16 48.08 15.632 47.312 15.12 46.56C14.16 45.136 13.136 43.648 12.512 42.064C11.856 40.416 11.68 38.704 11.968 36.976C11.44 38.368 11.168 39.888 11.168 41.488C11.136 41.792 11.152 42.096 11.184 42.432Z" fill="#961A31"/>
<path d="M13.376 41.696C13.968 43.2 14.96 44.624 15.888 46.032C16.624 47.104 17.328 48.16 17.872 49.216C18.464 49.344 19.088 49.44 19.712 49.488C19.056 48.56 18.496 47.504 18.016 46.304C16.144 41.632 16.416 35.84 18.752 32.496C19.952 30.768 21.392 29.6 23.264 28.576C24.848 27.696 25.856 27.44 26.88 26.832C27.984 26.176 28.576 25.072 27.84 22.608C27.632 21.872 27.584 21.312 27.632 20.864C27.376 21.36 27.184 21.92 27.104 22.576C26.992 23.28 26.944 24.048 26.64 24.816C25.664 27.376 20.944 28.784 20.32 28.976C18.528 29.504 17.088 30.352 15.968 31.344C12.688 34.24 12.112 38.56 13.376 41.696Z" fill="#961A31"/>
<path d="M33.088 18.592C33.136 18.752 33.184 18.912 33.2 19.056C33.312 19.952 33.056 20.672 31.952 20.848C30.816 21.024 30.432 20.048 30.352 19.248C30.336 18.96 30.368 18.736 30.384 18.592C30.192 18.592 30.016 18.592 29.824 18.608C29.472 18.816 28.992 19.136 28.544 19.584C28.32 20.08 28.048 20.736 28.464 22.304C29.2 25.072 28.88 26.736 26.672 27.696C23.84 28.912 22.032 29.632 19.6 32.672C18.432 34.128 17.808 36.528 17.712 38.944C17.6 41.296 18.096 43.808 18.912 45.856C19.456 47.232 20.112 48.432 20.88 49.44C21.632 49.408 22.416 49.312 23.168 49.136C22.32 48.16 21.84 46.944 21.76 45.6C21.472 41.104 23.888 39.232 27.6 36.24L29.264 34.848C35.904 29.216 33.968 23.488 34.688 18.592C34.176 18.624 33.632 18.608 33.088 18.592Z" fill="#961A31"/>
<path d="M35.744 18.688C35.536 19.664 35.44 20.688 35.392 21.744C35.12 26.016 35.264 30.832 29.856 35.616L28.224 36.944C24.608 39.84 22.544 41.648 22.688 45.584C22.736 46.88 23.28 48.016 24.208 48.912C25.216 48.608 26.224 48.176 27.184 47.632C31.888 44.976 34.832 40.976 35.968 35.888C36.688 32.656 36.672 30.032 36.656 27.92C36.656 26.848 36.784 24.752 36.784 24.752C36.928 23.424 37.136 21.584 38.672 19.136C38.72 19.056 38.784 18.976 38.816 18.896C37.84 18.816 36.816 18.736 35.744 18.688Z" fill="#961A31"/>
<path d="M37.328 32.4C37.184 33.168 37.136 34.032 37.04 34.88C36.992 35.2 36.944 35.52 36.912 35.84C36.896 35.936 36.88 36.016 36.848 36.096C35.664 41.488 32.592 45.664 27.664 48.464C26.816 48.944 25.952 49.344 25.088 49.648C26.528 50.608 28.224 50.896 29.392 50.736C33.824 50.064 35.984 47.184 37.024 44.08C38.096 40.912 37.984 37.52 37.936 36.128C37.76 31.44 41.376 29.712 41.376 29.712C38.56 29.552 37.632 30.784 37.328 32.4Z" fill="#961A31"/>
<path d="M34.368 49.664C32.56 51.184 30.608 51.504 29.712 51.648C27.968 51.92 25.904 51.504 24.08 50.064C24.048 50.032 24.016 50.016 23.984 49.984C23.2 50.192 22.416 50.32 21.632 50.4C23.424 52.32 25.76 53.408 28.944 53.632C28.96 53.632 28.976 53.632 28.992 53.632C31.136 52.784 33.008 51.408 34.432 49.616C34.4 49.648 34.4 49.648 34.368 49.664Z" fill="#961A31"/>
<path d="M17.888 52.88C17.92 51.904 17.648 50.912 17.184 49.952C16.096 49.632 15.04 49.184 14.016 48.56C13.44 48.208 12.912 47.68 12.464 47.184C13.648 49.6 15.552 51.584 17.888 52.88Z" fill="#961A31"/>
<path d="M26.912 54.24C25.136 53.84 23.632 53.2 22.32 52.208C21.632 51.68 21.024 51.104 20.464 50.448C19.744 50.432 19.04 50.368 18.336 50.24C18.72 51.248 18.928 52.272 18.8 53.344C20.448 54.096 22.288 54.512 24.224 54.512C25.168 54.512 26.064 54.4 26.944 54.224C26.928 54.24 26.928 54.24 26.912 54.24Z" fill="#961A31"/>
<path d="M42.096 22.128C41.792 23.136 40.784 23.024 40.512 22.464C40.048 21.6 40.224 20.928 40.704 20.464C41.184 20 41.968 19.76 42.72 19.424H42.736C41.856 19.28 40.928 19.136 39.92 19.024C39.904 19.04 39.888 19.056 39.872 19.072C39.776 19.184 39.696 19.264 39.6 19.376C38.016 21.744 37.824 23.504 37.664 24.848L37.616 25.264C37.52 25.984 37.52 26.864 37.536 27.904C37.536 28.048 37.536 28.192 37.536 28.336C37.52 28.688 37.504 29.056 37.488 29.408C37.504 29.408 37.504 29.408 37.504 29.408C37.52 29.264 37.52 29.216 37.52 29.296C37.968 27.888 38.784 27.008 39.952 26.544C41.2 26.032 42.432 25.584 42.496 23.76C42.528 23.008 42.576 22.24 42.752 21.856C43.072 21.152 43.632 20.96 43.632 20.96C43.056 20.912 42.4 21.168 42.096 22.128Z" fill="#961A31"/>
<path d="M43.616 14.944C43.712 13.728 44.848 13.504 45.968 12.448C47.392 11.088 45.536 8.832 45.536 8.832C45.776 10.352 45.056 10.928 43.776 11.84C43.376 12.128 43.072 12.528 43.04 13.024C42.992 13.584 42.944 14.192 42.832 14.816C43.088 14.864 43.344 14.912 43.616 14.944Z" fill="#F9A11E"/>
<path d="M39.68 12.832C39.344 13.088 39.008 13.36 38.72 13.616C38.512 13.824 38.304 14.016 38.112 14.224C39.36 14.336 40.576 14.48 41.76 14.64C42.496 13.264 42.88 11.728 42.432 9.07199C42.416 9.08799 42.304 10.88 39.68 12.832Z" fill="#F9A11E"/>
<path d="M32.672 13.968C34.096 13.984 35.52 14.048 36.88 14.128C36.928 14.08 36.976 14.032 37.008 14C37.936 13.024 39.36 12.176 40.112 11.072C40.864 9.95201 40.576 8.60801 40.288 6.96001C39.792 4.12801 41.008 3.60001 41.008 3.60001C41.008 3.60001 38.608 3.92001 38.656 5.31201C38.72 7.16801 40.64 8.91201 37.76 9.44001C34.592 10.016 32.624 11.728 32.192 13.968C32.352 13.968 32.496 13.968 32.672 13.968Z" fill="#F9A11E"/>
<path d="M32.656 14.72C19.408 14.592 8.352 18 7.968 22.368C7.824 24.112 9.376 25.712 12.144 27.056C13.856 27.872 16.048 28.592 18.56 29.136C19.072 28.912 19.584 28.704 20.144 28.544C20.576 28.416 21.392 28.144 22.288 27.76C18.576 27.232 15.584 26.384 13.712 25.376C12.336 24.64 11.616 23.808 11.696 22.944C11.952 20.032 21.232 17.744 32.416 17.856C43.6 17.968 52.464 20.432 52.208 23.344C52.128 24.128 51.408 24.896 50.128 25.552C47.792 26.784 43.664 27.728 38.64 28.176C38.464 28.416 38.32 28.688 38.192 28.976C40.464 28.112 43.104 29.392 43.104 29.392C43.104 29.392 43.28 29.472 43.408 29.536C46.736 28.944 49.6 28.096 51.744 27.088C54.272 25.888 55.824 24.432 55.952 22.848C56.352 18.48 45.904 14.848 32.656 14.72Z" fill="white"/>
</g>
<defs>
<clipPath id="clip0_1_5">
<rect width="64" height="64" fill="white"/>
</clipPath>
</defs>
</svg>
