<svg width="64" height="64" viewBox="0 0 64 64" fill="none" xmlns="http://www.w3.org/2000/svg">
<rect width="64" height="64" fill="white"/>
<path d="M63.0674 10.9109L56.9624 24.0102H32.5097L24.8106 40.5361H17.8922C17.9465 39.712 18.1091 38.8878 18.3802 38.0745C19.0417 36.0793 20.2887 34.4419 21.8502 33.2599C22.2623 33.7262 22.631 34.2358 22.9671 34.778C23.0213 34.8648 23.1189 34.8539 23.1623 34.778L34.2989 10.9109H63.0674Z" fill="#061922"/>
<path d="M6.44121 45.6543C5.7472 47.0532 4.74958 48.2352 3.53507 49.146C2.5266 47.9749 1.72416 46.5978 1.20366 45.0363C0.856659 43.9952 0.661471 42.9326 0.607252 41.8916H7.48221C7.38462 43.182 7.03761 44.4615 6.44121 45.6543Z" fill="#061922"/>
<path d="M12.0041 41.8807V53.3101C9.19553 53.1474 6.52796 52.0088 4.47848 50.122C5.79058 49.1027 6.87496 47.8014 7.63402 46.2724C8.32802 44.8844 8.72924 43.3988 8.81599 41.8916H12.0041V41.8807Z" fill="#061922"/>
<path d="M6.9834 38.0745C7.25449 38.877 7.41715 39.712 7.47137 40.5361H0.607252C0.759065 37.8468 1.80007 35.2985 3.53507 33.2924C5.09658 34.4527 6.32193 36.0901 6.9834 38.0745Z" fill="#061922"/>
<path d="M12.0041 29.1067V40.5361H8.82684C8.77262 39.571 8.58828 38.595 8.27381 37.6516C7.54727 35.4503 6.1918 33.6286 4.48933 32.3057C5.71467 31.1671 7.20027 30.267 8.8919 29.7031C9.92206 29.367 10.9631 29.1718 12.0041 29.1067Z" fill="#061922"/>
<path d="M16.5368 40.5361H13.3595V29.1067C16.1681 29.2585 18.8465 30.3971 20.896 32.284C19.1284 33.6394 17.8163 35.4829 17.1006 37.6516C16.7862 38.595 16.591 39.571 16.5368 40.5361Z" fill="#061922"/>
<path d="M20.896 50.1328C19.6706 51.2606 18.1959 52.1498 16.5259 52.7028C15.4741 53.0498 14.4114 53.245 13.3595 53.2992V41.8807H16.5368C16.6344 43.388 17.0247 44.8736 17.7187 46.2616C18.4886 47.8014 19.573 49.1135 20.896 50.1328Z" fill="#061922"/>
<path d="M24.7997 41.8807C24.6479 44.57 23.5961 47.1399 21.8502 49.1569C20.6249 48.246 19.6272 47.0532 18.9224 45.6543C18.326 44.4615 17.979 43.182 17.8922 41.8807H24.7997Z" fill="#061922"/>
</svg>
