<svg width="64" height="64" viewBox="0 0 64 64" fill="none" xmlns="http://www.w3.org/2000/svg">
<g clip-path="url(#clip0_1_34)">
<rect width="64" height="64" fill="white"/>
<path d="M31.85 57.7375L27.6375 52.275C22.2875 50.5125 18.5625 45.675 18.2125 40.0375L15.6 36.65C13.1125 37.725 10.6375 39.4125 10.6375 39.4125L2.8125 31.55L6.1125 24.3125L0.199997 16.6625H9.5875L11.4 12.7L16.05 10.825L16.5625 9.425L20.325 11.15L21.225 8.025L21.8375 7.825C24.8125 6.8375 28.25 6.3 31.7625 6.275C31.8625 6.275 32.975 6.2875 33.0125 6.2875C33.1375 6.2875 33.6875 6.3125 33.6875 6.3125C36.6625 6.45 39.45 6.95 41.9875 7.7875L42.6125 7.9875L43.4375 10.975L44.8 9.95L52.4125 12.6625L54.25 16.675H63.6875L57.725 24.375L60.975 31.5L53.025 39.6875C53.025 39.6875 50.1125 37.5625 48.1125 36.775L45.7125 39.8625C45.4375 45.625 41.5125 50.6875 36 52.375L31.85 57.7375Z" fill="white"/>
<path d="M31.85 53.95L58.9875 18.975H4.9125L31.85 53.95Z" fill="#9EA2A2"/>
<path d="M2.675 17.875L31.85 55.75L61.225 17.875H2.675ZM58.9875 18.975L31.8625 53.95L4.9125 18.975H58.9875Z" fill="#1D428A"/>
<path d="M55.0625 21.4125L55.05 21.3875L55.025 21.375L53.2875 20.2125L53.9375 18.975L53.9625 18.9375L53.95 18.9L51.5625 13.6625L51.55 13.625L51.5125 13.6125L45.075 11.325L45.025 11.3125L44.9875 11.3375L43.275 12.6375L43.2625 12.65L43.25 12.675L42.9625 13.3875C42.9625 13.3875 40.2875 12.7125 36.375 12.325C35.975 12.2875 34.9125 12.2 33.2 12.0625L33.0375 12.05L32.8625 12.0375H32.825L32.8 12.0625L31.525 13.325V12.025C31.525 12.025 27.9125 12.225 25.55 12.55C23.1875 12.875 20.8625 13.4625 20.8625 13.4625L20.4375 12.55L20.425 12.525L20.4 12.5125L17.3625 11.125L17.275 11.0875L17.2375 11.175L16.875 12.125L16.8 11.9375L16.7625 11.8625L16.6875 11.9L12.3375 13.65L12.3 13.6625L12.2875 13.7L4.2625 31.325L10.85 37.925L11.1625 37.75C11.3625 37.6375 11.6375 37.475 11.9625 37.2875C12.7625 36.8125 13.85 36.175 14.375 35.925L14.475 35.875C15.15 35.55 15.4875 35.3875 18.6875 34.0125L18.95 33.9125C18.95 33.9125 19.3125 33.775 19.975 33.55C21.7375 32.9625 26.3 31.6125 30.725 31.6125H30.775C30.95 31.6125 31.125 31.6125 31.3 31.625C34.3 31.7125 37.825 32.35 40.2375 32.8625C42.5625 33.3625 44.3125 33.85 44.8125 33.9875L45.15 34.0875C47.35 34.9375 50.05 36.3375 52.5375 37.9375L52.85 38.1375L59.5125 31.275L55.0625 21.4125Z" fill="#1D428A"/>
<path d="M54.35 22.025L47.9375 17.75L46.825 14.625L48.8125 15.325L49.6125 17.275L52.625 18.2375L50.875 14.35L45.1875 12.325L44.1375 13.1375L46.025 19.2875L52.1125 23.5875L53.675 27.475L51.1375 26.3375L50.2625 23.9125L47.15 23L48.8125 28.475C49.325 28.6625 49.8375 28.8625 50.3375 29.0625C51.725 29.625 53.075 30.2375 54.4 30.925C55.3125 31.4 56.225 31.8875 57.1125 32.4125L58.4375 31.05L54.35 22.025Z" fill="#F58426"/>
<path d="M11.1375 24.925L13.275 23.0125L13.7875 23.6125L11.675 29.675C12.825 29.1625 14 28.7 15.1875 28.275L16.7125 23.275L15.4 21.1L18.125 18.5L19.725 13.1875L17.7625 12.3L16 17.3125L13.175 19.75L15.75 13.25L12.9875 14.35L5.3625 31.075L6.55 32.275C7.2625 31.8625 7.975 31.4625 8.7 31.0875L11.1375 24.925Z" fill="#F58426"/>
<path d="M30.4625 12.9875L28.125 13.1125L27.025 25.6625C28.0125 25.5625 29.025 25.5 30.025 25.475L30.4625 12.9875Z" fill="#F58426"/>
<path d="M37.4 23.0625L34.6875 22.9L34.25 15.2125L36.55 15.325L36.275 13.2125L33.1875 12.9875L31.8 14.375V23.9875L33.25 25.475C34.75 25.525 36.2375 25.6375 37.7 25.8125L37.4 23.0625Z" fill="#F58426"/>
<path d="M22.0125 17.9375L22.9875 22.7125L22.35 26.325C23.3 26.1375 24.25 25.9875 25.225 25.8625L26.75 13.275L24.575 13.5875L23.8625 17.7125L23.05 13.8375L20.5 14.475L16.95 27.6875C17.975 27.3625 19.0125 27.075 20.0625 26.825L22.0125 17.9375Z" fill="#F58426"/>
<path d="M40.8875 22.3625L41.65 21.325L42.7625 22.25L43.7875 26.925C44.8625 27.2 45.925 27.5 46.9875 27.8375L45.075 20.975L43.1 19.3625L44.225 17.8625L43.2875 14.375L40.9 13.85L41.8375 17.3625L40.35 19.35L39.25 13.575L37.0375 13.3C37.0375 13.3 38.15 21.7625 38.6625 25.925C39.6625 26.0625 40.65 26.2375 41.6375 26.4375L40.8875 22.3625Z" fill="#F58426"/>
<path d="M27.3625 28.05C27.3625 28.05 28.2875 27.5125 30.125 27.3125L30.0625 25.8625C29.05 25.9 28.05 25.9625 27.05 26.05C27.15 26.6125 27.275 27.45 27.3625 28.05Z" fill="#9EA2A2"/>
<path d="M33.2125 27.2125C33.9625 27.3 34.7625 27.55 35.4625 27.7375C36.1 27.8875 36.7875 28.1625 37.35 28.4125L37.6625 26.175C36.1875 25.9875 34.7875 25.8875 33.275 25.8375C33.25 26.2875 33.25 26.8875 33.2125 27.2125Z" fill="#9EA2A2"/>
<path d="M23.5375 30.75C24.4 30.1125 24.9125 29.4625 25.8125 28.9125C25.6375 28.1 25.4125 27.05 25.25 26.25C24.2625 26.375 23.3 26.5375 22.3375 26.725C22.6875 27.925 23.1625 29.5375 23.5375 30.75Z" fill="#9EA2A2"/>
<path d="M38.1 28.875C38.9375 29.3625 39.5875 29.9 40.3375 30.6375L40.4875 30.75L41.6625 26.85C40.65 26.6375 39.6625 26.4625 38.625 26.3125L38.1 28.875Z" fill="#9EA2A2"/>
<path d="M41.8125 32.25L44.625 32.9125L46.9875 28.2375C45.9 27.8875 44.85 27.5875 43.7375 27.3125L41.8125 32.25Z" fill="#9EA2A2"/>
<path d="M19.2375 32.9125C19.975 32.6375 20.9875 32.275 21.95 32.0125L20.125 27.2C19.025 27.4625 18.0625 27.75 16.9875 28.0875C17.6625 29.7 18.425 31.3625 19.2375 32.9125Z" fill="#9EA2A2"/>
<path d="M15 34.65C15.1625 34.5125 16.75 33.825 17.85 33.3625C17.025 31.8625 16.025 30.2125 15.1875 28.6875C14 29.1125 12.9125 29.55 11.7625 30.0625L15 34.65Z" fill="#9EA2A2"/>
<path d="M11.025 36.7625C11.5375 36.4625 12.075 36.15 12.6625 35.8L8.93749 31.4125C8.22499 31.775 7.52499 32.1625 6.83749 32.5625L11.025 36.7625Z" fill="#9EA2A2"/>
<path d="M46.1125 33.5C48.35 34.3625 51.475 36.125 52.7125 36.95C53.2875 36.4 56.4 33.1375 56.825 32.6875C54.2375 31.175 51.525 29.875 48.7 28.8375L46.1125 33.5Z" fill="#9EA2A2"/>
<path d="M32.7875 27.1375L31.725 27.1L31.7 24.5125L32.8125 25.6625L32.7875 27.1375Z" fill="#9EA2A2"/>
<path d="M31.9625 26.625C25.025 26.625 19.4 32.25 19.4 39.1875C19.4 46.125 25.025 51.75 31.9625 51.75C38.9 51.75 44.525 46.125 44.525 39.1875C44.525 32.25 38.9 26.625 31.9625 26.625Z" fill="#1D428A"/>
<path d="M32.7375 27.5625C31.775 27.9 30.85 28.3875 29.925 28.8125C29.3 28.4375 28.9375 28.3375 28.5125 28.0625C29.8375 27.6 31.2625 27.525 32.7375 27.5625Z" fill="#F58426"/>
<path d="M41.7375 32.9C38.775 29.9125 34.3375 30.1375 30.575 29.075C30.575 29.075 32.7875 28.025 33.9375 27.725C37.0125 28.2625 39.9875 30.1 41.7375 32.9Z" fill="#F58426"/>
<path d="M25.1 33.35C22.2625 37.7125 21.875 43.0875 24.1375 47.8C21.2125 45.3375 19.4625 40.5875 20.775 35.9625C21.85 34.45 23.2375 33.125 25.1 33.35Z" fill="#F58426"/>
<path d="M28.1375 36.45C29.675 41.0125 30.0125 46.05 33.975 50.6375C30.8875 51.2625 27.8125 50.3375 25.375 48.7875C22.35 44.375 22.6375 37.775 25.6625 33.5C27.1375 33.9375 27.9375 35.8625 28.1375 36.45Z" fill="#F58426"/>
<path d="M26.0125 33.025C26.475 32.375 26.9875 31.7625 27.575 31.1875C34.0125 33 40.15 39.675 41.2 46.2375C40.8875 46.7375 40.1625 47.425 39.6625 47.9125C38.0625 49.35 36.3 50.1 34.6125 50.5C31.6125 47.3875 30.6125 43.3375 29.5625 39.35C28.75 36.2875 28.1875 33.975 26.025 33.0375L26.0125 33.025Z" fill="#F58426"/>
<path d="M41.05 33C37.9375 30.2625 33.6125 30.6125 29.975 29.325C29.275 29.75 28.5875 30.2625 28 30.7875C34.4375 32.8 40.275 39.1 41.6625 45.6C42.675 44.1375 43.275 42.45 43.525 40.65C43.6875 37.9 43.6625 35.3875 41.05 33Z" fill="#F58426"/>
<path d="M27.05 30.9875C26.425 31.5875 25.9625 32.175 25.475 32.8625H25.4625C23.7625 32.475 22.4125 33.3625 21.3375 34.4625C21.85 33.1625 22.9375 31.625 24.075 30.6125C25.125 30.65 25.8875 30.6375 27.05 30.9875Z" fill="#F58426"/>
<path d="M27.5 30.5875C28.1125 30.05 28.7 29.575 29.425 29.1375L27.775 28.325C26.675 28.775 25.5 29.3625 24.6875 30.1C25.95 30.2375 26.4875 30.3125 27.5 30.5875Z" fill="#F58426"/>
<path d="M30.1875 11.225L29.675 11.725L28.8 11.775L28.475 11.4875L28.0625 11.8375L27.1125 11.925L26.7 11.525L27.25 7.8125L27.9625 7.7125L27.575 10.9875L28.0875 10.925L28.4875 7.6375L29.2 7.575L28.9 10.8375L29.4 10.7875L29.6625 7.5375C29.9625 7.5 30.125 7.5125 30.3875 7.4875L30.1875 11.225Z" fill="#1D428A"/>
<path d="M32.5125 7.475L32.525 9.8125H32.9875L32.9625 7.4875C32.9625 7.4875 33.4375 7.5 33.6625 7.525L33.75 10.15L33.3125 10.5875L33.1625 10.6L33.1875 11.725L32.4125 11.7L32.4 10.575L32.25 10.5625L31.775 10.075L31.8 7.475C32.0375 7.4625 32.5125 7.475 32.5125 7.475Z" fill="#1D428A"/>
<path d="M26.7375 7.9125L26.6125 8.675L25.75 8.8375L25.5875 9.7375C25.9 9.675 26.1 9.65 26.475 9.6C26.425 9.9375 26.4125 10.05 26.35 10.3625L25.475 10.4875L25.3125 11.35L26.2 11.225C26.2 11.225 26.1125 11.8 26.0625 12.0625C25.4375 12.1375 24.8125 12.225 24.2125 12.3375C24.2125 12.3375 24.8875 9.225 25.05 8.2625L26.7375 7.9125Z" fill="#1D428A"/>
<path d="M23.4625 12.4625L22.5625 12.6375L22.975 10.9375L22.7 10.325L21.9875 12.7625L21.1 12.9625C21.4625 11.6375 21.85 10.3125 22.2125 9C22.5125 8.9 22.7375 8.825 23.0125 8.75C23.1125 8.975 23.35 9.425 23.35 9.425L23.5625 8.6C23.5625 8.6 24.125 8.45 24.4 8.3875L23.4625 12.4625Z" fill="#1D428A"/>
<path d="M36.1875 8.2C36.275 9.2625 36.45 10.2875 36.5625 11.275L36.1625 11.875L34.8875 11.7875L34.425 11.2875C34.3375 10.2 34.2875 9.1125 34.225 8.025C34.3375 7.875 34.525 7.75 34.6625 7.6L35.725 7.7L36.1875 8.2ZM34.9875 8.375L35.2125 10.9125L35.6625 10.95L35.425 8.425L34.9875 8.375Z" fill="#1D428A"/>
<path d="M40.3125 8.575C40.475 9.1875 40.7875 10.4375 40.7875 10.4375L41.0875 10.5L41.2375 10.3L40.8625 8.7375C40.8625 8.7375 41.2375 8.8375 41.6375 8.9625L42.0375 10.475L41.85 10.75L42.2 11.1375L42.725 12.975L41.85 12.775L41.5125 11.4875L40.9625 11.3625L41.2625 12.65L40.375 12.475C40.0625 11.0875 39.5 8.3625 39.5 8.3625C39.5 8.3625 39.9625 8.4625 40.3125 8.575Z" fill="#1D428A"/>
<path d="M38.9375 8.725L39.225 10.2375L39.05 10.475L39.35 10.825L39.6125 12.3375L38.7625 12.1875L38.525 10.9375L38.0125 10.875L38.1875 12.1L37.3375 11.9875L36.775 7.825L38.4 8.1125L38.9375 8.725ZM37.7 8.775L37.85 9.8375L38.325 9.8875L38.125 8.85L37.7 8.775Z" fill="#1D428A"/>
</g>
<defs>
<clipPath id="clip0_1_34">
<rect width="64" height="64" fill="white"/>
</clipPath>
</defs>
</svg>
