<svg width="64" height="64" viewBox="0 0 64 64" fill="none" xmlns="http://www.w3.org/2000/svg">
<g clip-path="url(#clip0_1_27)">
<rect width="64" height="64" fill="white"/>
<path d="M14.88 21.568C14.88 21.568 20.176 12.912 31.008 12.912C41.84 12.912 46.896 21.312 46.896 21.312H61.6L61.024 24.928C61.024 24.928 60.592 26.368 59.936 26.512H60.944C60.944 26.512 61.28 27.776 59.264 32.144H63.552C63.552 32.144 63.728 39.792 54.48 43.408C54.48 43.408 49.696 44.928 47.248 42.32C47.248 42.32 42.384 51.392 31.04 51.392C19.696 51.392 14.544 42.064 14.544 42.064H1.34399L3.43999 38.288H2.01599L3.69599 35.184H6.55999L7.07199 34H5.72799L9.00799 27.952H10.848L11.6 26.112H9.99999L12.448 21.568H14.88Z" fill="white"/>
<path d="M31.168 49.376C40.448 49.376 47.968 41.744 47.968 32.32C47.968 22.896 40.448 15.264 31.168 15.264C21.888 15.264 14.368 22.896 14.368 32.32C14.368 41.744 21.888 49.376 31.168 49.376Z" fill="#FAB624"/>
<path d="M44.368 21.296C44.16 21.056 43.856 20.544 41.792 18.736C38.752 16.096 34.736 14.88 30.944 14.88C28.16 14.88 25.712 15.504 23.024 16.992C19.568 18.88 18.16 21.072 17.808 21.52C17.552 21.856 17.504 22.032 17.68 22.128C17.808 22.192 18.032 21.936 18.24 21.648C19.264 20.288 20.608 18.96 22.016 18.16C22.464 18.224 23.072 18.832 23.312 19.168C22.4 19.664 20.896 20.8 20.336 21.248C19.84 21.632 19.68 21.84 19.808 22C19.92 22.128 20.304 21.872 20.608 21.616C21.152 21.168 22.768 20.032 23.568 19.6C24.112 20.224 23.936 21.408 23.744 21.68C23.632 21.824 23.632 21.968 23.744 22.032C23.856 22.096 23.984 21.936 24.144 21.696C24.528 21.168 24.368 19.856 24.048 19.392C25.024 18.8 26.432 18.384 27.28 18.192C27.36 18.336 28.384 21.344 28.576 21.872C28.688 22.176 28.8 22.528 29.008 22.448C29.152 22.4 29.056 22.064 28.928 21.744C28.768 21.328 28 18.816 27.76 18.064C28.048 17.904 29.728 17.568 30.16 17.584C29.952 18.688 30.72 19.136 31.616 19.712C32.096 20.016 35.056 21.728 35.68 22.112C36.032 22.336 36.304 22.48 36.384 22.368C36.464 22.24 36.224 22 35.888 21.824C35.616 21.664 32.864 20.064 31.712 19.328C30.88 18.816 30.432 18.24 30.64 17.52C30.912 17.44 31.744 17.44 32.608 17.44C38.496 17.488 43.232 20.88 43.76 21.408C44.032 21.68 44.4 21.92 44.544 21.808C44.656 21.76 44.496 21.44 44.368 21.296ZM23.808 18.96C23.648 18.688 22.896 18.016 22.496 17.872C23.44 17.184 25.632 16.176 26.464 16C26.608 16.24 26.992 17.264 27.12 17.68C26.4 17.84 24.448 18.56 23.808 18.96ZM30.256 17.072C29.488 17.12 28.096 17.424 27.6 17.568C27.472 17.232 27.12 16.192 27.008 15.872C28.432 15.472 30.064 15.344 31.344 15.44C30.976 15.696 30.384 16.752 30.256 17.072ZM34.08 17.024C32.8 16.928 31.76 16.896 30.848 16.992C31.12 16.336 31.632 15.696 32.048 15.44C32.912 15.472 33.808 15.6 34.544 15.744C36.832 16.208 40.368 17.584 41.904 19.632C39.856 18.256 36.464 17.184 34.08 17.024Z" fill="#0B1A23"/>
<path d="M45.648 41.488C45.872 41.088 46.048 40.864 45.856 40.752C45.68 40.656 45.52 41.04 45.312 41.376C44.624 42.576 43.872 43.568 42.176 45.104C40.304 46.816 38.128 47.808 37.376 48.064C36.736 46.272 34.288 38.592 34.224 38.368C34.128 38.032 34.048 37.936 33.936 37.984C33.808 38.032 33.888 38.208 33.952 38.496C34.016 38.784 36.928 47.856 37.024 48.192C36.448 48.48 34.112 49.136 32.464 49.184C30.992 49.232 29.296 49.184 28.432 48.976C27.424 48.16 25.104 44.896 24.24 43.168C23.2 41.12 22.528 39.248 22.352 38.448C22.272 38.064 22.16 37.792 21.968 37.84C21.76 37.888 21.872 38.192 22 38.592C22.32 39.648 22.816 41.136 23.888 43.264C25.024 45.52 27.056 48.144 27.648 48.88C25.792 48.48 23.536 47.616 21.392 46.032C19.552 44.656 17.952 42.896 17.152 41.616C17.008 41.392 16.848 41.088 16.656 41.216C16.56 41.28 16.672 41.536 16.816 41.76C17.984 43.84 20.8 46.784 24.432 48.416C28.656 50.304 33.248 50.192 37.392 48.608C40.976 47.184 44.096 44.32 45.648 41.488Z" fill="#0B1A23"/>
<path d="M38.832 34.08C37.264 35.984 36.368 36.64 34.784 36.64C34.256 36.64 33.968 36.512 34.112 36.256L36 32.464H36.72C37.52 32.464 37.408 33.136 37.2 34.048C37.152 34.176 37.264 34.192 37.36 34.08L39.152 30.928C39.248 30.72 39.008 30.688 38.896 30.832C38 32.064 37.056 31.968 36.64 31.968H36.304L38.32 28.112H39.136C40.16 28.176 40.64 29.04 40.352 31.136H40.784L42.272 28.208C42.4 27.952 42.128 27.728 41.856 27.728H31.792C31.216 27.728 31.184 28.176 31.744 28.176C32.208 28.176 32.176 28.816 31.76 29.136L27.488 32.528L28.352 36.528C28.416 36.832 28.608 36.976 28.944 36.976H37.28C37.632 36.976 37.776 36.832 37.872 36.688L39.392 34.096C39.568 33.728 39.088 33.76 38.832 34.08ZM33.008 32.24H32.272C32.224 32.24 32.176 32.288 32.176 32.336C32.176 32.384 32.224 32.432 32.272 32.432H33.008C33.264 32.432 33.504 32.464 33.44 32.576L31.52 36.224C31.28 36.672 30.784 36.56 30.704 36.208L29.744 31.28L33.104 28.688C33.44 28.4 34.08 27.936 34.416 27.952H35.136C35.584 27.952 35.728 28.16 35.648 28.432L35.52 28.688C35.44 28.832 35.168 28.848 34.96 28.848H34.528C34.48 28.848 34.432 28.896 34.432 28.944C34.432 28.992 34.48 29.04 34.528 29.04H34.944C35.12 29.04 35.36 29.04 35.264 29.184L33.712 32.144C33.616 32.224 33.296 32.24 33.008 32.24Z" fill="#542C81"/>
<path d="M26.112 36.544C25.888 36.544 25.728 36.384 25.68 36.224C25.6 36 25.616 35.632 25.696 35.472L29.584 28.592C29.648 28.464 29.808 28.192 30 28.192C30.352 28.192 30.496 27.728 29.904 27.728H26.8C26.224 27.728 26.224 28.176 26.768 28.176C26.992 28.176 27.088 28.4 27.024 28.544L26.16 30.096C26.048 30.272 25.808 30.288 25.568 30.288H24.832C24.784 30.288 24.736 30.336 24.736 30.384C24.736 30.432 24.784 30.48 24.832 30.48H25.568C25.776 30.48 25.936 30.544 25.808 30.784L22.944 36.016C22.736 36.304 22.336 36.368 22.352 35.808L23.376 28.144C23.424 27.904 23.36 27.744 23.088 27.744H21.536C21.344 27.744 21.232 27.84 21.152 27.952L20.608 28.64C20.528 28.72 20.384 28.72 20.208 28.72H18.912C18.864 28.72 18.816 28.768 18.816 28.816C18.816 28.864 18.864 28.912 18.912 28.912H19.968C20.16 28.912 20.384 28.96 20.304 29.04L18.816 30.896C18.768 30.944 18.624 30.96 18.528 30.96H18.096C18.048 30.96 18 31.008 18 31.056C18 31.104 18.048 31.152 18.096 31.152H18.448C18.56 31.152 18.56 31.2 18.512 31.248L17.12 32.992C17.04 33.056 16.912 33.072 16.768 33.072H15.536C15.488 33.072 15.44 33.12 15.44 33.168C15.44 33.216 15.488 33.264 15.536 33.264H16.592C16.752 33.264 16.88 33.296 16.8 33.408L14.832 35.888C14.448 36.368 12.672 36.592 12.32 36.592L19.008 24.08C19.072 23.936 19.328 23.712 19.568 23.712H20.992C21.648 23.712 21.632 23.264 21.056 23.264H13.952C13.376 23.264 13.36 23.712 14.016 23.712H15.344C15.728 23.712 15.84 23.936 15.744 24.128L15.552 24.48C15.488 24.592 15.392 24.64 15.04 24.64H12.688C12.64 24.64 12.592 24.688 12.592 24.736C12.592 24.784 12.64 24.832 12.688 24.832H15.024C15.152 24.832 15.344 24.864 15.232 25.104L14.896 25.712C14.832 25.808 14.688 25.856 14.528 25.856H13.472C13.424 25.856 13.376 25.904 13.376 25.952C13.376 26 13.424 26.048 13.472 26.048H14.528C14.688 26.048 14.688 26.144 14.592 26.288L13.84 27.696C13.776 27.824 13.648 27.84 13.408 27.84H12.976C12.928 27.84 12.88 27.888 12.88 27.936C12.88 27.984 12.928 28.032 12.976 28.032H13.408C13.568 28.032 13.616 28.128 13.536 28.272L12.928 29.424C12.832 29.584 12.704 29.664 12.304 29.664H9.968C9.92 29.664 9.872 29.712 9.872 29.76C9.872 29.808 9.92 29.856 9.968 29.856H12.304C12.576 29.856 12.672 29.984 12.56 30.176L11.36 32.448C11.28 32.544 11.088 32.56 10.768 32.56H8.416C8.368 32.56 8.32 32.608 8.32 32.656C8.32 32.704 8.368 32.752 8.416 32.752H10.736C11.024 32.752 11.2 32.768 11.104 32.912L10.416 34.224C10.288 34.432 9.92 34.432 9.792 34.432H9.056C9.008 34.432 8.96 34.48 8.96 34.528C8.96 34.576 9.008 34.624 9.056 34.624H9.792C10.048 34.624 10.192 34.672 10.128 34.816L9.2 36.56C9.12 36.72 8.752 36.72 8.48 36.72H4.848C4.8 36.72 4.752 36.768 4.752 36.816C4.752 36.864 4.8 36.912 4.848 36.912H8.464C8.704 36.912 8.992 36.944 8.896 37.136L8.304 38.256C8.24 38.352 8.048 38.352 7.76 38.352H7.024C6.976 38.352 6.928 38.4 6.928 38.448C6.928 38.496 6.976 38.544 7.024 38.544H7.76C7.936 38.544 8.16 38.56 8.08 38.704L7.712 39.408C7.584 39.584 7.472 39.744 7.2 39.744H5.328C4.672 39.744 4.688 40.192 5.264 40.192H15.904C16.224 40.192 16.224 40.144 16.384 39.92L17.952 37.168H26.016C26.608 37.008 26.448 36.56 26.112 36.544ZM19.776 35.728C19.696 36.192 19.248 36.48 18.672 36.624L18.08 36.768L18.576 35.888C18.704 35.648 18.416 35.504 18.112 35.856C16.048 38.256 15.408 39.408 12.224 39.424H11.36C11.104 39.424 10.832 39.328 10.992 39.072L12.112 36.976H16.384C16.96 36.976 16.816 36.528 16.48 36.512C16.256 36.512 16 36.368 15.84 36.096C15.792 36.016 15.68 35.712 15.856 35.488L17.488 33.312H20.176L19.776 35.728ZM20.4 32.992H17.76L21.12 28.56L20.4 32.992Z" fill="#542C81"/>
<path d="M60.736 34.352C60.688 34.128 60.608 34.272 60.464 34.544C60.416 34.624 60.272 34.624 60.144 34.624H59.712C59.664 34.624 59.616 34.672 59.616 34.72C59.616 34.768 59.664 34.816 59.712 34.816H60.144C60.304 34.816 60.304 34.928 60.24 35.088C59.936 35.712 59.648 36.128 59.248 36.64C59.184 36.72 59.024 36.784 58.896 36.784H58.464C58.416 36.784 58.368 36.832 58.368 36.88C58.368 36.928 58.416 36.976 58.464 36.976H58.896C59.104 36.976 58.896 37.104 58.864 37.152C58.128 38.144 57.6 38.592 57.072 39.024C57.008 39.072 56.688 39.056 56.496 39.056H56.064C56.016 39.056 55.968 39.104 55.968 39.152C55.968 39.2 56.016 39.248 56.064 39.248H56.48C56.8 39.248 56.56 39.44 56.512 39.472C55.344 40.432 53.632 40.752 52.848 40.656C50.272 40.336 49.76 38.384 49.568 37.616C49.52 37.456 49.408 37.12 49.36 36.912C49.28 36.496 50.432 36.4 50.768 36.592C51.264 36.928 52.368 37.248 53.28 37.248C54.096 37.248 55.792 36.656 56.272 35.248C56.784 33.792 55.52 32.208 54.96 31.632C54.256 30.928 53.584 29.808 53.872 28.976C54.08 28.368 54.432 28.08 55.2 28.08C56.176 28.08 56.896 28.704 56.896 29.616C56.896 29.696 56.848 29.792 56.784 29.792H56.432C56.384 29.792 56.336 29.84 56.336 29.888C56.336 29.936 56.384 29.984 56.432 29.984H56.768C56.864 29.984 56.912 30.048 56.896 30.176C56.832 30.48 56.816 30.688 56.736 30.976C56.704 31.152 56.96 31.28 57.04 31.152L58.592 28.4C58.704 28.192 58.448 28.128 58.272 28.192C57.84 28.336 57.168 28.448 56.912 28.272C56.336 27.856 55.808 27.6 55.008 27.6C53.632 27.6 52.672 27.936 52.064 29.072C52.016 29.168 51.872 29.152 51.76 29.152H51.488C51.44 29.152 51.392 29.2 51.392 29.248C51.392 29.296 51.44 29.344 51.488 29.344H51.712C51.808 29.344 51.872 29.376 51.824 29.488C51.776 29.584 51.744 29.696 51.712 29.808C51.552 30.304 51.6 30.976 51.856 31.584C51.872 31.632 51.824 31.648 51.728 31.648H51.296C51.248 31.648 51.2 31.696 51.2 31.744C51.2 31.792 51.248 31.84 51.296 31.84H51.728C51.92 31.84 51.968 31.856 52.048 31.968C52.272 32.272 52.496 32.496 52.752 32.848C52.848 32.96 52.464 32.992 52.256 32.992H50.608C50.56 32.992 50.512 33.04 50.512 33.088C50.512 33.136 50.56 33.184 50.608 33.184H52.288C52.56 33.184 53.024 33.184 53.072 33.232C53.488 33.712 53.968 34.432 54.048 35.024C54.064 35.2 54 35.28 53.792 35.28H53.568C53.52 35.28 53.472 35.328 53.472 35.376C53.472 35.424 53.52 35.472 53.568 35.472H53.776C53.952 35.472 54.048 35.504 54 35.632C53.776 36.32 53.456 36.832 52.128 36.832C50.72 36.832 50.448 35.456 50.848 34.032C50.928 33.744 50.848 33.616 50.72 33.84L49.744 35.376C49.712 35.408 49.632 35.504 49.472 35.504H49.328C49.28 35.504 49.232 35.552 49.232 35.6C49.232 35.648 49.28 35.696 49.328 35.696C49.456 35.696 49.504 35.76 49.456 35.824L49.088 36.368C48.512 35.024 47.52 33.376 46.992 32.768L47.008 32.736C48.304 32.656 50.208 31.44 50.528 30.352C51.056 28.48 49.232 27.776 48.24 27.776H43.856C43.28 27.776 43.232 28.224 43.792 28.224C44.096 28.224 44.352 28.496 44.224 28.752L43.248 30.496C43.168 30.64 42.864 30.64 42.48 30.64H42.048C42 30.64 41.952 30.688 41.952 30.736C41.952 30.784 42 30.832 42.048 30.832H42.464C42.752 30.832 43.04 30.848 42.96 31.056L41.808 33.12C41.744 33.216 41.6 33.232 41.216 33.232H40.784C40.736 33.232 40.688 33.28 40.688 33.328C40.688 33.376 40.736 33.424 40.784 33.424H41.2C41.52 33.424 41.632 33.472 41.536 33.632L40 36.4C39.808 36.608 39.6 36.64 39.232 36.64C38.688 36.64 38.688 37.088 39.264 37.088H43.008C43.584 37.088 43.456 36.624 43.104 36.624C42.896 36.624 42.688 36.24 42.816 36.032L44.72 32.4H44.912C45.76 32.4 45.968 33.808 46.128 35.312C46.144 35.424 45.936 35.424 45.52 35.424H44.448C44.4 35.424 44.352 35.472 44.352 35.52C44.352 35.568 44.4 35.616 44.448 35.616H45.504C45.792 35.616 46.16 35.616 46.176 35.712C46.256 36.368 46.304 36.976 46.432 37.504C46.48 37.68 46.176 37.648 45.856 37.648H44.48C44.432 37.648 44.384 37.696 44.384 37.744C44.384 37.792 44.432 37.84 44.48 37.84H45.84C46.272 37.84 46.48 37.84 46.496 37.92C47.072 40.064 49.584 41.744 52.016 41.648C54.096 41.568 55.856 40.432 56.752 39.712C57.952 38.752 59.712 36.736 60.432 35.264C60.56 34.944 60.784 34.592 60.736 34.352ZM46.688 31.504C46.384 31.744 45.936 32.016 45.856 31.936C45.728 31.808 45.344 31.536 45.136 31.44L46.864 28.272C46.944 28.16 47.024 28.096 47.216 28.096C47.888 28.096 48.112 28.832 47.792 29.744C47.568 30.384 47.216 31.088 46.688 31.504Z" fill="#542C81"/>
<path d="M25.6 24.912C25.248 25.376 24.784 25.472 24.256 25.472H24.112L25.04 23.648C25.088 23.568 25.184 23.504 25.312 23.504C25.424 23.504 25.408 23.264 25.264 23.264H23.808C23.68 23.264 23.632 23.504 23.76 23.504C23.888 23.504 23.904 23.648 23.856 23.76L23.04 25.376C22.976 25.472 22.896 25.488 22.784 25.52C22.656 25.552 22.576 25.776 22.72 25.776H25.04C25.216 25.776 25.264 25.712 25.312 25.648L25.792 24.928C25.792 24.848 25.664 24.832 25.6 24.912Z" fill="#542C81"/>
<path d="M48.672 23.984L48.88 23.6C48.976 23.44 48.816 23.248 48.592 23.248H45.888C45.696 23.248 45.744 23.456 45.824 23.456C46 23.456 46.048 23.664 45.952 23.856L45.136 25.36C45.008 25.504 44.928 25.568 44.752 25.568C44.608 25.568 44.56 25.776 44.752 25.776H47.488C47.6 25.776 47.648 25.728 47.696 25.68L48.08 25.184C48.176 25.056 47.968 25.056 47.92 25.12C47.44 25.6 46.944 25.584 46.56 25.584H46.24L46.624 24.752H46.704C46.944 24.752 47.216 24.752 47.296 24.944C47.312 24.992 47.44 25.024 47.488 24.944L47.808 24.304C47.856 24.208 47.712 24.192 47.68 24.256C47.552 24.48 47.008 24.416 46.848 24.416H46.768L47.248 23.488H47.76C48.096 23.488 48.352 23.728 48.448 23.968C48.48 24.016 48.64 24.064 48.672 23.984Z" fill="#542C81"/>
<path d="M58.816 23.344C58.752 23.376 58.576 23.408 58.496 23.344C58.304 23.184 57.952 23.072 57.76 23.072C57.216 23.072 56.816 23.184 56.576 23.696C56.368 24.144 56.576 24.496 57.072 24.736C57.28 24.832 57.568 24.96 57.456 25.216C57.376 25.408 57.152 25.424 56.96 25.424C56.704 25.424 56.32 25.232 56.256 24.864C56.24 24.736 56.096 24.768 56.048 24.832L55.712 25.488C55.664 25.584 55.792 25.68 55.856 25.616C55.968 25.488 56.224 25.472 56.336 25.552C56.496 25.664 56.912 25.856 57.168 25.856C57.712 25.856 58.08 25.712 58.4 25.248C58.688 24.8 58.512 24.384 58 24.144C57.728 24.016 57.504 23.792 57.616 23.552C57.696 23.392 57.936 23.424 58.064 23.44C58.288 23.472 58.576 23.696 58.608 23.888C58.624 23.968 58.72 23.984 58.768 23.904L58.944 23.488C58.976 23.376 58.848 23.312 58.816 23.344Z" fill="#542C81"/>
<path d="M51.552 24.912C51.2 25.376 50.736 25.472 50.208 25.472H50.064L50.992 23.648C51.04 23.568 51.136 23.504 51.264 23.504C51.376 23.504 51.36 23.264 51.216 23.264H49.76C49.632 23.264 49.584 23.504 49.712 23.504C49.84 23.504 49.856 23.648 49.808 23.76L48.992 25.376C48.928 25.472 48.848 25.488 48.736 25.52C48.608 25.552 48.528 25.776 48.672 25.776H50.992C51.168 25.776 51.216 25.712 51.264 25.648L51.744 24.928C51.744 24.848 51.616 24.832 51.552 24.912Z" fill="#542C81"/>
<path d="M55.04 23.488C55.376 23.488 55.632 23.728 55.728 23.968C55.744 24.032 55.92 24.08 55.968 24L56.176 23.616C56.272 23.456 56.112 23.264 55.888 23.264H53.184C52.992 23.264 53.04 23.472 53.12 23.472C53.296 23.472 53.344 23.68 53.248 23.872L52.432 25.376C52.304 25.52 52.224 25.584 52.048 25.584C51.904 25.584 51.856 25.792 52.048 25.792H54.784C54.896 25.792 54.944 25.744 54.992 25.696L55.376 25.2C55.472 25.072 55.264 25.072 55.216 25.136C54.736 25.616 54.24 25.6 53.856 25.6H53.536L53.92 24.768H54C54.24 24.768 54.512 24.768 54.592 24.944C54.608 24.992 54.736 25.024 54.784 24.944L55.104 24.304C55.152 24.208 55.008 24.192 54.976 24.256C54.848 24.48 54.304 24.416 54.144 24.416H54.064L54.544 23.488H55.056H55.04Z" fill="#542C81"/>
<path d="M41.744 23.264H40.784C40.592 23.264 40.64 23.472 40.72 23.472C40.928 23.472 41.12 23.712 41.008 23.936L40.608 24.656L39.728 23.36C39.664 23.28 39.52 23.232 39.408 23.232H38.464C38.272 23.232 38.304 23.44 38.4 23.44C38.608 23.44 38.544 23.6 38.496 23.696L37.744 25.152C37.696 25.264 37.488 25.28 37.424 25.136L36.848 23.232C36.816 23.152 36.48 23.152 36.384 23.232L34.912 24.448H34.16C34 24.448 33.952 24.512 33.952 24.592C33.952 24.672 34.016 24.752 34.176 24.752H34.576L34.176 25.088C33.952 25.248 33.728 25.488 33.584 25.488H33.488C33.344 25.488 33.264 25.504 33.264 25.632C33.264 25.744 33.328 25.792 33.456 25.792H34.64C34.864 25.792 34.816 25.504 34.704 25.504C34.576 25.504 34.368 25.344 34.56 25.12L34.928 24.768H35.632C36.064 24.768 36.336 25.264 36.112 25.408L35.92 25.52C35.824 25.568 35.792 25.792 35.92 25.792H38.24C38.416 25.792 38.384 25.568 38.304 25.568C38.064 25.568 38.176 25.216 38.224 25.136L38.832 23.984L39.68 25.632C39.744 25.744 39.792 25.792 39.888 25.792H40.224C40.336 25.792 40.368 25.728 40.416 25.648L41.392 23.904C41.552 23.584 41.68 23.488 41.872 23.488C41.888 23.488 41.952 23.264 41.744 23.264ZM35.28 24.464L36.176 23.728V24.464H35.28Z" fill="#542C81"/>
<path d="M28.064 23.168C27.248 23.168 26.416 23.568 26.256 24.432C26.112 25.168 26.624 25.952 27.536 25.952C28.4 25.952 29.184 25.392 29.36 24.56C29.504 23.728 28.88 23.168 28.064 23.168ZM28.288 24.736C28.032 25.248 27.6 25.552 27.328 25.408C27.056 25.264 27.04 24.752 27.296 24.224C27.552 23.712 27.984 23.408 28.256 23.552C28.544 23.696 28.56 24.208 28.288 24.736Z" fill="#542C81"/>
<path d="M32.576 23.344C32.512 23.376 32.336 23.408 32.256 23.344C32.064 23.184 31.712 23.072 31.52 23.072C30.976 23.072 30.576 23.184 30.336 23.696C30.128 24.144 30.336 24.496 30.832 24.736C31.04 24.832 31.328 24.96 31.216 25.216C31.136 25.408 30.912 25.424 30.72 25.424C30.464 25.424 30.08 25.232 30.016 24.864C30 24.736 29.856 24.768 29.808 24.832L29.472 25.488C29.424 25.584 29.552 25.68 29.616 25.616C29.728 25.488 29.968 25.472 30.096 25.552C30.256 25.664 30.672 25.856 30.928 25.856C31.472 25.856 31.84 25.712 32.16 25.248C32.448 24.8 32.272 24.384 31.76 24.144C31.488 24.016 31.264 23.792 31.376 23.552C31.456 23.392 31.696 23.424 31.824 23.44C32.048 23.472 32.336 23.696 32.368 23.888C32.384 23.968 32.48 23.984 32.528 23.904L32.704 23.488C32.752 23.376 32.624 23.312 32.576 23.344Z" fill="#542C81"/>
<path d="M44.496 24.4H43.456C43.264 24.4 43.312 24.608 43.392 24.608C43.472 24.608 43.552 24.656 43.552 24.784C43.552 25.216 43.376 25.36 43.024 25.36C42.624 25.36 42.496 24.864 42.752 24.288C42.928 23.904 43.376 23.568 43.92 23.568C44.256 23.568 44.512 23.648 44.56 23.952C44.576 24.032 44.688 24.032 44.72 23.952L44.976 23.504C45.008 23.456 44.96 23.392 44.88 23.392C44.816 23.392 44.672 23.472 44.576 23.408C44.368 23.248 43.92 23.104 43.568 23.104C43.008 23.104 42.224 23.232 41.696 24.144C41.216 24.976 41.92 25.84 42.56 25.84C42.928 25.84 43.328 25.568 43.568 25.472L43.84 25.648C43.888 25.696 43.968 25.76 44.048 25.76H44.144C44.24 25.76 44.272 25.632 44.304 25.552L44.72 24.56C44.752 24.48 44.72 24.4 44.496 24.4Z" fill="#542C81"/>
</g>
<defs>
<clipPath id="clip0_1_27">
<rect width="64" height="64" fill="white"/>
</clipPath>
</defs>
</svg>
