<svg width="64" height="64" viewBox="0 0 64 64" fill="none" xmlns="http://www.w3.org/2000/svg">
<g clip-path="url(#clip0_1_33)">
<rect width="64" height="64" fill="white"/>
<path d="M10.208 39.984C9.82401 39.408 8.54401 37.248 8.54401 33.76C8.54401 32.448 8.72001 30.96 9.20001 29.296C9.20001 29.28 9.20001 29.28 9.20001 29.264L9.40801 28.464L9.45601 28.512C9.48801 28.416 9.52001 28.32 9.55201 28.224C9.71201 27.728 9.88801 27.2 9.93601 27.088C9.96801 26.976 10.112 26.384 10.24 25.968C10.272 25.84 10.304 25.744 10.336 25.648V25.584C10.368 25.28 10.416 24.976 10.48 24.688C10.496 24.528 10.528 24.384 10.544 24.256L10.56 24.208L10.576 24.16C10.592 24.128 10.608 24.096 10.608 24.08C11.2 21.648 12.32 20.208 12.944 19.552V19.536V19.52C13.072 19.408 13.408 19.088 13.808 18.832C13.984 18.592 14.576 17.824 15.12 17.216C15.312 17.008 15.488 16.832 15.648 16.672C15.744 16.464 15.952 16.032 16.352 15.52C16.896 14.848 17.76 14.048 19.104 13.568C20.128 12.864 21.216 12.256 22.352 11.712C22.576 11.488 23.392 10.672 24.672 9.856C26.16 8.912 28.256 7.952 30.752 7.952C30.848 7.952 30.944 7.952 31.04 7.952L31.952 7.984L30.832 9.488C31.424 9.44 32.032 9.424 32.64 9.424C35.856 9.424 38.944 10.048 41.744 11.184H41.76H41.776C41.888 11.232 42.08 11.328 42.272 11.456C42.448 11.568 42.608 11.68 42.768 11.84C42.96 11.856 43.376 11.936 43.824 12.128H43.84H43.856C46.88 13.712 49.52 15.936 51.584 18.592L51.6 18.608L51.616 18.64C51.648 18.688 51.728 18.864 51.792 19.2C51.824 19.216 51.872 19.248 51.936 19.296C52.048 19.376 52.176 19.456 52.288 19.584L52.32 19.616L52.336 19.648C54.864 23.328 56.352 27.76 56.352 32.528C56.352 37.04 55.024 41.264 52.72 44.832L52.704 44.848L52.688 44.864C52.656 44.912 52.64 44.928 52.608 44.96C52.576 44.992 52.544 45.024 52.496 45.056C52.432 45.104 52.336 45.168 52.224 45.248C52.208 45.296 52.208 45.344 52.192 45.424C52.16 45.568 52.112 45.744 52 45.92V45.936L51.984 45.952C47.68 51.84 40.624 55.68 32.64 55.68C22.256 55.696 13.392 49.136 10.208 39.984Z" fill="white"/>
<path d="M52 19.968C51.856 19.824 51.536 19.632 51.536 19.632C51.424 19.584 51.392 19.472 51.392 19.472C51.328 19.072 51.248 18.928 51.248 18.928C49.232 16.32 46.64 14.16 43.664 12.592C43.136 12.352 42.656 12.336 42.656 12.336C42.544 12.336 42.496 12.256 42.496 12.256C42.32 12.016 41.792 11.744 41.6 11.648C38.848 10.528 35.84 9.92 32.672 9.92C31.712 9.92 30.768 9.984 29.84 10.096L31.056 8.464C26.176 8.32 22.688 12.128 22.688 12.128C21.52 12.672 20.4 13.312 19.344 14.032C16.8 14.944 16.064 16.992 16.064 16.992C15.424 17.536 14.144 19.232 14.144 19.232C13.776 19.44 13.392 19.792 13.28 19.904C12.688 20.512 11.616 21.888 11.056 24.256C11.04 24.288 11.024 24.336 11.008 24.368C10.992 24.496 10.96 24.656 10.944 24.8C10.896 25.088 10.832 25.376 10.8 25.68L10.832 25.648C10.816 25.712 10.816 25.744 10.816 25.744C10.752 25.792 10.384 27.248 10.384 27.248C10.32 27.44 9.66401 29.424 9.66401 29.424V29.44C7.92001 35.552 10.24 39.248 10.64 39.808C13.728 48.784 22.432 55.264 32.688 55.264C40.512 55.264 47.44 51.504 51.648 45.728C51.76 45.536 51.824 45.152 51.824 45.152C51.824 45.024 51.92 44.976 51.92 44.976C52.24 44.8 52.352 44.688 52.368 44.656C54.624 41.168 55.92 37.04 55.92 32.608C55.936 27.904 54.48 23.568 52 19.968Z" fill="#061922"/>
<path d="M22.928 15.584C22.992 15.52 23.04 15.456 23.088 15.408C23.168 15.328 23.2 15.312 23.2 15.312C23.216 15.296 23.216 15.296 23.216 15.296C23.232 14.128 23.504 13.2 23.504 13.2C25.616 10.24 29.104 9.472 29.104 9.472C29.536 9.344 29.264 9.536 29.264 9.536C27.072 12 27.296 14.032 27.296 14.032L29.392 21.68C29.392 21.68 27.696 21.088 26.384 18.4C25.776 23.76 30.832 28.112 30.832 28.112C31.056 28.304 30.704 28.096 30.704 28.096C29.44 27.472 27.984 26.128 27.584 25.76C27.696 26.176 30.144 38.544 30.16 38.576C30.176 38.64 30.208 38.752 30.224 38.832L31.072 36.72L31.776 42.96C28.576 45.936 25.168 44.768 24.944 44.688C25.024 44.816 25.088 44.912 25.088 44.912C25.088 44.912 27.856 50.352 39.152 49.776C39.152 49.776 39.424 49.776 39.376 49.808C39.376 49.824 39.36 49.824 39.312 49.84C39.104 49.92 38.768 49.968 38.768 49.968C25.136 53.616 18.08 42 17.776 41.472C17.696 41.36 17.024 40.416 16.656 39.488C16.64 39.456 16.624 39.376 16.688 39.44C16.688 39.44 18.128 40.944 22.224 41.328C22.256 41.328 22.272 41.328 22.272 41.328C19.104 37.808 17.76 35.248 17.568 34.848C17.568 34.848 17.184 34.272 16.736 32.656C16.736 32.656 16.752 32.576 16.784 32.656C16.944 32.976 17.984 34.528 19.264 34.864C18.176 33.12 17.504 30.368 17.424 29.952C18.896 32.016 21.504 32.16 21.504 32.16C21.504 32.16 21.504 32.144 21.488 32.144C21.488 32.16 21.504 32.16 21.504 32.16C17.216 27.872 18.144 23.216 19.872 19.856C20.928 17.856 22.24 16.32 22.928 15.584Z" fill="white"/>
<path d="M35.776 43.92L32.96 46.88L36.432 44.208L34.64 38L35.424 30.544L34.048 37.664L35.776 43.92Z" fill="#BBC4CA"/>
<path d="M36.4 25.664C36.16 26.944 35.76 28.24 35.056 28.832C35.104 28.8 35.168 28.768 35.248 28.736C35.456 28.608 35.728 28.416 36.016 28.128C36.576 27.552 37.136 26.608 37.136 25.12C37.136 24.448 37.024 23.68 36.752 22.784C36.704 23.28 36.624 24.464 36.4 25.664Z" fill="#BBC4CA"/>
<path d="M36.368 16.144C37.344 14.656 38.96 14.528 39.648 14.528C39.056 14.352 38.512 14.288 38.016 14.288C36.976 14.288 36.208 14.576 35.888 14.72C35.84 14.736 35.808 14.752 35.776 14.768C36.032 15.12 36.288 15.872 36.368 16.144Z" fill="#BBC4CA"/>
<path d="M35.136 19.248C35.168 19.248 35.184 19.264 35.184 19.296C35.184 19.44 35.184 19.568 35.184 19.712C35.184 22.896 34.336 26.4 34.016 27.616C35.232 24.816 35.568 22.208 35.568 20.208C35.568 19.04 35.456 18.064 35.344 17.392C35.28 17.04 35.232 16.768 35.184 16.592C34.88 18.992 33.968 20.08 33.952 20.096C33.936 20.112 33.92 20.112 33.904 20.112C33.888 20.112 33.872 20.096 33.872 20.08C32.368 17.312 30.144 15.616 29.136 14.944C28.96 14.832 28.816 14.736 28.736 14.688C31.6 20.896 32.432 25.696 32.64 27.28C32.64 27.104 32.656 26.912 32.656 26.72C32.656 23.888 31.936 20.464 31.568 18.928C31.44 18.416 31.36 18.112 31.36 18.112C31.36 18.096 31.36 18.064 31.376 18.064C31.392 18.048 31.408 18.048 31.44 18.064C32.72 19.056 33.632 21.904 33.792 22.432C34.032 22.128 34.352 21.392 34.608 20.704C34.88 19.968 35.104 19.296 35.104 19.296C35.088 19.264 35.104 19.248 35.136 19.248C35.12 19.248 35.12 19.248 35.136 19.248Z" fill="#BBC4CA"/>
<path d="M11.072 32.144C11.072 35.104 11.584 38.192 14.128 42.144C16.528 47.2 20.96 49.92 23.024 50.976C23.712 51.328 24.128 51.488 24.144 51.488C27.424 53.04 30.512 53.6 33.28 53.6C39.072 53.6 43.456 51.104 45.296 49.856C45.904 49.44 46.24 49.168 46.24 49.168C46.368 49.072 46.448 48.992 46.528 48.928C46.496 48.944 46.448 48.976 46.416 48.992C46.288 49.072 46.16 49.152 46.16 49.152C41.664 51.792 37.52 52.592 34.128 52.592C28.832 52.592 25.392 50.608 25.392 50.608C14.144 44.72 13.984 34.496 13.984 34.496C13.984 34.48 14 34.448 14.016 34.448C14.032 34.448 14.064 34.448 14.064 34.48C15.52 37.296 17.28 38.256 18.048 38.56C18.16 38.608 18.256 38.64 18.32 38.656C15.04 34.512 14.112 31.04 14.112 28.432C14.112 24.976 15.744 23.008 15.76 23.008C15.776 22.992 15.792 22.992 15.824 22.992C15.84 23.008 15.856 23.024 15.856 23.04C15.616 24.256 15.536 25.344 15.536 26.272C15.536 28.56 16.064 29.968 16.336 30.544C16.336 30.56 16.352 30.576 16.352 30.592C16.256 29.76 16.208 28.96 16.208 28.192C16.208 20.48 20.72 15.744 21.68 14.816C20.96 15.12 20.096 15.888 19.392 16.608C18.608 17.408 18.016 18.144 18.016 18.144C18 18.16 17.984 18.16 17.968 18.16C17.952 18.16 17.936 18.128 17.936 18.112C17.936 17.504 18.288 16.736 18.48 16.352C17.904 16.88 17.424 17.712 17.072 18.432C16.688 19.232 16.48 19.904 16.48 19.904L16.464 19.92C14.672 21.936 13.808 24.112 13.488 25.056C13.376 25.376 13.328 25.552 13.328 25.552C13.28 25.712 13.264 25.792 13.248 25.84C13.232 25.856 13.232 25.872 13.184 25.888C13.152 25.888 13.136 25.856 13.136 25.856C13.136 25.84 13.136 25.84 13.136 25.824C13.136 25.808 13.136 25.776 13.136 25.76C13.136 25.664 13.152 25.536 13.152 25.536C13.184 24.08 13.792 22.448 14.032 21.84C12.32 23.68 11.904 26.176 11.904 28.176C11.904 29.12 12 29.952 12.096 30.544C12.192 31.136 12.288 31.488 12.288 31.488V31.504C12.288 32.672 12.528 34.128 12.752 35.296C12.976 36.448 13.216 37.312 13.216 37.312C13.296 37.536 13.328 37.632 13.328 37.696C13.328 37.712 13.328 37.712 13.328 37.728C13.328 37.744 13.296 37.76 13.28 37.76C13.248 37.76 13.232 37.744 13.232 37.728C13.216 37.712 13.216 37.696 13.2 37.68C13.184 37.648 13.152 37.6 13.136 37.568C13.088 37.488 13.056 37.408 13.056 37.408C11.856 35.568 11.28 32.544 11.136 31.792C11.072 31.904 11.072 32.016 11.072 32.144Z" fill="#BBC4CA"/>
<path d="M37.44 17.712L37.408 17.696L37.424 17.664C37.968 16.192 40.56 14.896 41.056 14.64C39.856 13.968 38.704 13.76 37.744 13.76C37.024 13.76 36.416 13.872 35.984 14C35.552 14.112 35.312 14.224 35.312 14.224L35.28 14.24L35.264 14.208C34.816 13.648 34.24 13.104 33.776 12.688C33.328 12.288 32.992 12.032 32.96 12C32.896 11.952 32.848 11.936 32.848 11.872C32.848 11.84 32.88 11.808 32.896 11.808C32.912 11.792 32.944 11.792 32.96 11.792C33.008 11.776 33.072 11.776 33.12 11.776C33.184 11.776 33.232 11.776 33.248 11.776C43.552 11.776 49.024 19.136 49.024 19.136C49.088 19.216 49.136 19.296 49.136 19.376C49.12 19.6 48.88 19.696 48.656 19.776C48.432 19.84 48.192 19.872 48.192 19.872C47.2 20.016 46.272 20.064 45.424 20.064C40.032 20.064 37.44 17.712 37.44 17.712Z" fill="#0064B1"/>
<path d="M33.936 47.456C33.92 47.456 33.904 47.44 33.904 47.424C33.904 47.408 33.904 47.392 33.92 47.376L37.376 44.592L35.616 38.096V38.08L36.096 33.728C36.096 33.712 36.112 33.696 36.112 33.696C36.128 33.68 36.144 33.68 36.16 33.696C36.944 33.936 37.312 35.008 37.504 36C37.632 36.72 37.68 37.392 37.68 37.728C38.592 35.744 38.896 34.144 38.896 32.912C38.896 31.168 38.288 30.128 38 29.728C37.904 29.6 37.84 29.536 37.84 29.536C37.824 29.52 37.824 29.488 37.84 29.472C37.856 29.456 37.888 29.456 37.904 29.472C42.016 33.376 42.848 38.832 42.848 42.592C42.848 45.136 42.464 46.896 42.464 46.912C42.336 47.312 41.92 47.408 41.904 47.424C40.224 47.792 38.752 47.92 37.536 47.92C35.28 47.888 33.936 47.456 33.936 47.456Z" fill="#0064B1"/>
<path d="M43.6 46.992C43.536 46.944 43.488 46.848 43.504 46.736C43.504 46.688 43.504 46.624 43.536 46.544C43.536 46.544 43.664 46.032 43.808 45.136C43.936 44.256 44.08 42.992 44.08 41.52C44.08 37.6 43.136 32.128 38.768 27.888C38.752 27.872 38.688 27.84 38.656 27.792C38.64 27.776 38.624 27.76 38.624 27.728C38.624 27.712 38.64 27.68 38.656 27.664C38.672 27.648 38.688 27.648 38.72 27.648C38.768 27.648 38.816 27.664 38.912 27.68C38.912 27.68 40.08 28.032 40.896 28.944C40.896 28.88 40.88 28.816 40.864 28.736C40.832 28.496 40.768 28.176 40.656 27.792C40.432 27.024 40.032 26.048 39.296 25.2C39.296 25.2 39.2 25.088 39.136 25.024C39.12 24.992 39.104 24.992 39.104 24.944C39.104 24.928 39.104 24.912 39.12 24.912C39.136 24.896 39.152 24.896 39.152 24.896C39.184 24.896 39.2 24.912 39.232 24.928C39.264 24.944 39.312 24.976 39.376 25.024C39.632 25.152 50.608 30.464 50.992 41.168C50.992 41.168 50.992 41.232 50.992 41.328C50.992 41.584 50.944 42.112 50.608 42.416C50.496 42.544 47.904 45.776 44.08 47.024C44.08 47.024 43.968 47.072 43.84 47.072C43.744 47.056 43.664 47.04 43.6 46.992Z" fill="#0064B1"/>
<path d="M51.856 39.44C51.824 39.36 51.808 39.264 51.808 39.12C51.552 28.816 40.256 22.32 37.424 20.864C37.024 20.656 36.8 20.544 36.8 20.544L36.608 20.448H36.832C36.848 20.448 36.848 20.448 36.864 20.448C38.352 20.448 39.248 21.344 39.52 21.648C39.52 21.376 39.472 21.088 39.408 20.88C39.36 20.656 39.296 20.512 39.296 20.512L39.264 20.416L39.36 20.448C40.544 20.896 42.064 21.056 43.568 21.04C45.008 21.04 46.432 20.896 47.488 20.768C48.544 20.624 49.232 20.496 49.232 20.496C49.28 20.496 49.344 20.496 49.392 20.496C50 20.496 50.192 20.832 50.208 20.896C51.616 22.464 53.376 26.128 53.664 30.512C53.696 31.056 53.712 31.6 53.712 32.112C53.712 35.968 52.784 38.768 52.24 39.424C52.16 39.52 52.096 39.584 52 39.584C51.936 39.568 51.888 39.52 51.856 39.44Z" fill="#0064B1"/>
<path d="M27.792 10.544C27.792 10.528 27.808 10.528 27.808 10.512C27.68 10.544 25.424 11.216 24.768 14.64C24.768 14.64 24.768 14.704 24.8 14.64C25.008 14.304 25.712 13.248 26.352 13.552C26.352 13.552 26.352 13.52 26.368 13.488C26.384 13.216 26.608 12.016 27.792 10.544Z" fill="#061922"/>
<path d="M26.064 41.584C25.584 40.608 22.448 33.776 22.448 33.776C21.472 34.08 20.272 33.296 20.272 33.296C21.808 37.376 25.424 40.96 26.016 41.6C26.016 41.6 26.016 41.6 26.032 41.616C26.128 41.728 26.128 41.68 26.128 41.68C26.096 41.664 26.08 41.632 26.064 41.584Z" fill="#061922"/>
<path d="M22.96 19.344C20.144 25.792 26.496 28.448 26.576 28.48L26.24 26.992L26.048 26.144C25.888 26.096 25.744 26.032 25.6 25.968C25.552 25.952 25.504 25.92 25.456 25.904C25.392 25.872 25.344 25.84 25.28 25.824C22.512 24.352 22.768 20.816 22.944 19.664C22.944 19.648 22.944 19.648 22.944 19.632C22.944 19.6 22.96 19.568 22.96 19.536C22.976 19.424 22.992 19.36 22.992 19.312C22.992 19.296 22.992 19.28 22.992 19.28C23.008 19.216 22.976 19.312 22.96 19.344Z" fill="#061922"/>
<path d="M27.136 37.504L26.672 29.392L29.392 38.432C29.408 38.432 28.512 36.304 27.136 37.504Z" fill="#BBC4CA"/>
<path d="M27.312 14.192L27.92 19.04C27.92 19.04 28.208 20.368 26.4 18.384C27.712 21.072 29.408 21.664 29.408 21.664L27.328 14.08C27.312 14.096 27.296 14.112 27.312 14.192Z" fill="#BBC4CA"/>
<path d="M24.416 23.04C24.24 22.64 24.176 22.272 24.176 21.952C24.176 20.768 25.04 20.112 25.04 20.112L25.072 20.096C25.072 20.112 25.024 19.344 25.104 18.128C24.4 19.152 22.928 21.584 24.704 23.488C24.672 23.456 24.656 23.408 24.624 23.376C24.528 23.232 24.464 23.136 24.416 23.04Z" fill="#BBC4CA"/>
<path d="M26.256 24.032C25.952 23.504 25.184 21.824 25.072 20.128C25.072 20.112 25.072 20.112 25.072 20.096L25.04 20.112C25.04 20.112 24.176 20.784 24.176 21.952C24.176 22.272 24.24 22.64 24.416 23.04C24.464 23.136 24.528 23.248 24.624 23.376C24.64 23.408 24.672 23.44 24.704 23.488C24.736 23.536 24.768 23.568 24.816 23.616C25.12 23.936 25.616 24.272 26.448 24.304C26.432 24.304 26.352 24.208 26.256 24.032Z" fill="#061922"/>
<path d="M28.72 39.424C29.008 39.424 29.216 39.68 29.392 40.048C29.568 40.416 29.712 40.88 29.824 41.36C29.968 41.952 30.048 42.544 30.096 42.896C30.096 43.056 30.096 43.184 30.096 43.248C30.16 42.864 30.736 39.072 28.8 38.528C28.8 38.528 27.456 38.192 27.552 40.976C27.568 40.912 27.568 40.864 27.568 40.8C28 39.824 28.368 39.424 28.72 39.424Z" fill="#BBC4CA"/>
<path d="M30.096 42.88C30.096 42.768 29.968 41.936 29.824 41.344C29.712 40.864 29.568 40.4 29.392 40.032C29.216 39.68 29.008 39.424 28.72 39.408C28.368 39.408 28 39.808 27.552 40.8C27.52 40.864 27.536 40.88 27.536 40.976L28.192 42.432C28.192 42.432 28.576 38.528 30.064 43.216C30.096 43.168 30.112 43.088 30.096 42.88Z" fill="#061922"/>
</g>
<defs>
<clipPath id="clip0_1_33">
<rect width="64" height="64" fill="white"/>
</clipPath>
</defs>
</svg>
