<svg width="64" height="64" viewBox="0 0 64 64" fill="none" xmlns="http://www.w3.org/2000/svg">
<g clip-path="url(#clip0_1_35)">
<rect width="64" height="64" fill="white"/>
<path d="M3.248 54.336L30.4 39.472L11.984 54.336L34.32 41.504L33.968 44.08L37.696 42.016L46.096 49.968L50.576 36.512L56.256 35.712L53.76 27.936L59.04 23.344L52.032 20.384L53.952 12.224L47.504 15.184L44.464 7.888L39.008 13.328L30.032 8.624L28.416 17.456L20.128 19.248L25.04 22.224L20.096 24.704L24.288 25.056L7.04 38.48L24.4 29.248L5.76 43.424L25.584 33.104L4.432 49.024L27.76 36.576L3.248 54.336Z" fill="#F79E1E"/>
<path d="M52.928 28.064C52.624 35.52 46.32 41.312 38.864 41.008C31.408 40.704 25.616 34.4 25.92 26.944C26.224 19.488 32.528 13.696 39.984 14C47.44 14.304 53.232 20.592 52.928 28.064Z" fill="#E46025"/>
<path d="M41.072 39.152C33.616 38.848 27.824 32.544 28.128 25.088C28.272 21.632 29.696 18.544 31.936 16.256C28.464 18.576 26.112 22.464 25.92 26.944C25.616 34.4 31.408 40.704 38.864 41.008C42.864 41.168 46.544 39.584 49.136 36.896C46.832 38.432 44.048 39.28 41.072 39.152Z" fill="#B65B27"/>
<path d="M52.944 27.648C52.944 27.168 52.928 26.688 52.88 26.208C52.096 25.664 51.184 25.248 50.064 25.104C49.856 25.072 49.664 25.056 49.456 25.04C49.328 24.144 49.12 23.28 48.864 22.416C49.008 22.432 49.136 22.432 49.28 22.448C50.224 22.528 51.168 22.624 52.096 22.752C51.968 22.4 51.824 22.064 51.68 21.744C50.64 21.584 49.584 21.472 48.512 21.376H48.496C48.144 20.496 47.744 19.68 47.248 18.864C47.936 18.72 48.56 18.448 49.056 17.968C48.816 17.712 48.528 17.456 48.256 17.232C47.824 17.632 47.264 17.84 46.608 17.936C46.512 17.792 46.4 17.664 46.304 17.536C45.392 16.336 44.32 15.328 43.152 14.496C42.128 14.208 41.072 14.032 39.968 13.968C39.904 13.968 39.856 13.968 39.776 13.968C41.824 14.784 43.664 16.144 45.136 17.952C43.728 17.824 42.112 17.344 40.512 16.88C40.032 16.736 39.568 16.608 39.136 16.48C36.4 15.728 34.304 15.6 32.736 15.744C31.568 16.416 30.512 17.248 29.584 18.224C31.28 17.504 34.72 16.304 38.896 17.456C39.328 17.568 39.792 17.712 40.272 17.856C42.112 18.4 44.176 19.008 45.968 19.024C46.464 19.76 46.88 20.528 47.232 21.344C46.88 21.328 46.528 21.312 46.176 21.312C37.504 21.168 30.048 23.76 25.92 27.904C25.952 28.736 26.032 29.536 26.192 30.32C27.36 28.64 29.072 27.136 31.296 25.872C35.504 23.52 41.072 22.256 46.992 22.384C47.2 22.384 47.392 22.4 47.6 22.4C47.904 23.264 48.128 24.144 48.272 25.056C44.464 25.216 41.984 27.6 39.136 30.144C36.592 32.432 33.472 34.704 28.928 36.064C29.344 36.592 29.824 37.088 30.32 37.536C34.624 35.824 37.456 33.12 39.856 30.96C42.592 28.512 44.944 26.176 48.368 26.048C48.448 26.992 48.448 27.968 48.368 28.944C47.904 34.24 44.848 38.736 40.656 40.944C41.712 40.848 42.768 40.624 43.744 40.272C44.08 40 44.416 39.712 44.72 39.392C47.456 36.704 49.168 33.008 49.504 29.04C49.584 28.048 49.584 27.056 49.504 26.08C49.68 26.096 49.856 26.112 50.032 26.144C51.28 26.336 52.208 26.944 52.944 27.648Z" fill="black"/>
</g>
<defs>
<clipPath id="clip0_1_35">
<rect width="64" height="64" fill="white"/>
</clipPath>
</defs>
</svg>
