<svg width="64" height="64" viewBox="0 0 64 64" fill="none" xmlns="http://www.w3.org/2000/svg">
<g clip-path="url(#clip0_1_28)">
<rect width="64" height="64" fill="white"/>
<path d="M56 31.984C56 45.232 45.264 55.968 32.016 55.968C18.768 55.968 8.016 45.232 8.016 31.984C8.016 18.736 18.752 8 32.016 8C45.28 8 56 18.736 56 31.984Z" fill="#1D428A"/>
<path d="M47.712 16.288C43.52 12.096 37.936 9.79201 32.016 9.79201C26.096 9.79201 20.528 12.096 16.32 16.288C12.128 20.48 9.824 26.064 9.824 31.984C9.824 37.904 12.128 43.472 16.32 47.68C20.512 51.872 26.096 54.176 32.016 54.176C37.936 54.176 43.504 51.872 47.712 47.68C51.904 43.488 54.208 37.904 54.208 31.984C54.208 26.064 51.888 20.496 47.712 16.288ZM17.152 17.136C21.12 13.168 26.384 10.976 32 10.976C37.6 10.976 42.88 13.168 46.848 17.136C50.816 21.104 53.008 26.368 53.008 31.984C53.008 35.008 52.384 37.92 51.184 40.592C48.64 39.728 46.144 38.768 43.68 37.664C43.36 37.52 43.04 37.376 42.704 37.232L41.744 36.784L41.264 36.56L40.784 36.336L39.824 35.856C39.52 35.696 39.2 35.536 38.88 35.36L38.416 35.12C38.256 35.04 38.112 34.944 37.952 34.864L37.024 34.352L36.112 33.808C33.68 32.384 31.328 30.784 29.12 29.04C28.016 28.16 26.944 27.232 25.92 26.272C25.408 25.776 24.912 25.28 24.432 24.784C24.304 24.656 24.192 24.528 24.08 24.4C23.952 24.272 23.856 24.144 23.728 24C23.6 23.856 23.504 23.744 23.392 23.6L23.376 23.584C23.328 22.048 23.312 21.12 23.312 21.12L22.272 20.88V22.288H21.376V20.8L20.256 21.056L20.272 21.6L19.744 21.888C19.76 22.336 19.776 22.896 19.776 23.6C19.344 24.336 14.704 32.384 11.216 34.848C11.12 33.92 11.04 32.96 11.04 31.984C11.024 26.384 13.2 21.104 17.152 17.136ZM44.736 42.288L42.56 42.368L40.8 37.792L41.136 37.968L42.112 38.448C42.432 38.608 42.752 38.752 43.088 38.912C43.184 38.96 43.28 39.008 43.36 39.04L44.736 42.288ZM44.208 39.424C45.088 39.824 45.968 40.208 46.832 40.56L47.552 42.176L45.376 42.256L44.208 39.424ZM41.92 42.384L39.712 42.464L37.408 35.936C37.552 36.016 37.696 36.112 37.84 36.176L38.32 36.432C38.624 36.608 38.944 36.784 39.264 36.96L39.984 37.344L41.92 42.384ZM39.056 42.48L37.088 42.544L34.208 33.968C34.656 34.256 35.088 34.544 35.536 34.816L36.464 35.392L36.592 35.472L39.056 42.48ZM36.432 42.56L34.368 42.64L30.944 31.696C31.728 32.288 32.528 32.848 33.344 33.408L36.432 42.56ZM33.696 42.656L31.712 42.72L27.664 29.056C27.952 29.296 28.24 29.552 28.528 29.792C29.04 30.224 29.552 30.64 30.08 31.04L33.696 42.656ZM31.072 42.752L28.864 42.832L24.032 25.536C24.464 26 24.896 26.464 25.344 26.912C25.808 27.376 26.304 27.84 26.768 28.288L31.072 42.752ZM28.224 42.848L26.32 42.912L23.664 32.752C23.584 30.128 23.504 27.712 23.456 25.76L28.224 42.848ZM25.68 42.912L24.032 42.976C23.92 40.56 23.824 38.016 23.76 35.552L25.68 42.912ZM48.96 44.384C48.816 44.592 48.672 44.768 48.528 44.96L24.128 44.48L24.112 44.256L48.96 44.384ZM48.24 42.16L47.68 40.912C48.608 41.28 49.536 41.632 50.48 41.984C50.464 42.016 50.432 42.064 50.416 42.096L48.24 42.16ZM22.288 26.816V28.112H21.296V29.312H22.288V30.608H21.296V31.808H22.288V34.224H21.296V35.424H22.288V37.92H21.296V39.12H22.288V43.04L21.376 43.072V24.8H22.272V25.616H21.28V26.816H22.288ZM12.848 40.608L15.584 31.392C16.688 29.92 17.904 28.064 19.184 25.76L14.288 43.28C13.744 42.416 13.264 41.52 12.848 40.608ZM12.464 39.696C11.984 38.464 11.616 37.2 11.376 35.888C12.144 35.28 13.232 34.272 14.544 32.704L12.464 39.696ZM19.776 25.984C19.776 27.824 19.744 30.08 19.696 32.464L16.88 43.216L14.928 43.28L19.776 25.984ZM19.632 35.168C19.552 37.824 19.456 40.592 19.328 43.136L17.52 43.2L19.632 35.168ZM15.888 45.456L19.184 45.584C19.12 46.592 19.04 47.568 18.976 48.464C18.352 47.952 17.728 47.424 17.168 46.848C16.72 46.4 16.288 45.936 15.888 45.456ZM32.016 52.976C29.392 52.976 26.864 52.496 24.496 51.584C24.4 50.16 24.304 48.432 24.224 46.544L22.32 45.904V50.592C22.016 50.432 21.712 50.272 21.408 50.08V45.632L22.32 45.664V45.696H23.312L25.088 45.76L47.184 46.544C47.088 46.64 47.008 46.736 46.928 46.816C42.896 50.8 37.616 52.976 32.016 52.976Z" fill="#FDB927"/>
</g>
<defs>
<clipPath id="clip0_1_28">
<rect width="64" height="64" fill="white"/>
</clipPath>
</defs>
</svg>
